<?xml version="1.0" encoding="UTF-8"?>
<!DOCTYPE svg PUBLIC "-//W3C//DTD SVG 1.1//EN" "http://www.w3.org/Graphics/SVG/1.1/DTD/svg11.dtd">
<svg xmlns="http://www.w3.org/2000/svg" version="1.1" width="500px" height="500px" style="shape-rendering:geometricPrecision; text-rendering:geometricPrecision; image-rendering:optimizeQuality; fill-rule:evenodd; clip-rule:evenodd" xmlns:xlink="http://www.w3.org/1999/xlink">
<g><path style="opacity:1" fill="#fefefe" d="M -0.5,-0.5 C 166.167,-0.5 332.833,-0.5 499.5,-0.5C 499.5,166.167 499.5,332.833 499.5,499.5C 332.833,499.5 166.167,499.5 -0.5,499.5C -0.5,332.833 -0.5,166.167 -0.5,-0.5 Z"/></g>
<g><path style="opacity:1" fill="#d6e0e9" d="M 219.5,155.5 C 217.112,156.349 214.779,157.349 212.5,158.5C 211.167,158.5 209.833,158.5 208.5,158.5C 208.804,157.85 209.137,157.183 209.5,156.5C 212.768,155.513 216.102,155.18 219.5,155.5 Z"/></g>
<g><path style="opacity:1" fill="#a1b7cd" d="M 219.5,155.5 C 233.167,155.5 246.833,155.5 260.5,155.5C 266.975,156.115 273.308,157.449 279.5,159.5C 277.833,159.5 276.167,159.5 274.5,159.5C 268.904,158.29 263.238,157.623 257.5,157.5C 242.605,156.045 227.605,156.378 212.5,158.5C 214.779,157.349 217.112,156.349 219.5,155.5 Z"/></g>
<g><path style="opacity:1" fill="#5b81a7" d="M 257.5,157.5 C 242.43,157.078 227.43,157.744 212.5,159.5C 210.833,159.5 209.167,159.5 207.5,159.5C 207.5,159.167 207.5,158.833 207.5,158.5C 207.833,158.5 208.167,158.5 208.5,158.5C 209.833,158.5 211.167,158.5 212.5,158.5C 227.605,156.378 242.605,156.045 257.5,157.5 Z"/></g>
<g><path style="opacity:1" fill="#e1e8ef" d="M 260.5,155.5 C 266.509,155.334 272.509,155.501 278.5,156C 283.801,157.33 288.801,159.163 293.5,161.5C 290.05,160.09 286.384,159.424 282.5,159.5C 281.5,159.5 280.5,159.5 279.5,159.5C 273.308,157.449 266.975,156.115 260.5,155.5 Z"/></g>
<g><path style="opacity:1" fill="#205287" d="M 257.5,157.5 C 263.238,157.623 268.904,158.29 274.5,159.5C 274.5,159.833 274.5,160.167 274.5,160.5C 263.977,160.236 253.477,159.57 243,158.5C 232.842,159.343 222.675,160.009 212.5,160.5C 212.5,160.167 212.5,159.833 212.5,159.5C 227.43,157.744 242.43,157.078 257.5,157.5 Z"/></g>
<g><path style="opacity:1" fill="#abbfd2" d="M 207.5,158.5 C 207.5,158.833 207.5,159.167 207.5,159.5C 206.5,159.5 205.5,159.5 204.5,159.5C 201.402,159.756 198.402,160.422 195.5,161.5C 196.347,160.034 197.68,159.2 199.5,159C 202.146,158.503 204.813,158.336 207.5,158.5 Z"/></g>
<g><path style="opacity:1" fill="#033d78" d="M 274.5,160.5 C 280.109,161.65 285.776,162.65 291.5,163.5C 291.833,163.5 292.167,163.5 292.5,163.5C 292.804,164.15 293.137,164.817 293.5,165.5C 300.266,167.899 307.266,169.899 314.5,171.5C 315.833,171.5 317.167,171.5 318.5,171.5C 319.167,171.5 319.833,171.5 320.5,171.5C 321.048,174.084 322.715,175.084 325.5,174.5C 326.833,174.5 328.167,174.5 329.5,174.5C 329.5,175.5 329.5,176.5 329.5,177.5C 330.5,177.5 331.5,177.5 332.5,177.5C 332.5,178.5 332.5,179.5 332.5,180.5C 335.167,180.5 337.833,180.5 340.5,180.5C 341.167,180.5 341.833,180.5 342.5,180.5C 347.817,184.058 353.484,187.058 359.5,189.5C 362.283,191.999 365.283,194.333 368.5,196.5C 369.736,197.246 371.07,197.579 372.5,197.5C 372.833,197.5 373.167,197.5 373.5,197.5C 373.414,198.496 373.748,199.329 374.5,200C 377.626,200.99 380.626,202.156 383.5,203.5C 384.167,203.833 384.833,204.167 385.5,204.5C 389.348,209.02 394.014,212.353 399.5,214.5C 400.63,216.315 401.296,218.315 401.5,220.5C 403.167,220.5 404.833,220.5 406.5,220.5C 409.352,222.325 412.018,224.325 414.5,226.5C 414.414,227.496 414.748,228.329 415.5,229C 418.363,230.722 421.03,232.555 423.5,234.5C 425.833,236.167 427.833,238.167 429.5,240.5C 429.5,241.5 429.5,242.5 429.5,243.5C 430.5,243.5 431.5,243.5 432.5,243.5C 432.5,244.5 432.5,245.5 432.5,246.5C 430.821,246.285 429.821,246.952 429.5,248.5C 428.71,249.401 427.71,250.068 426.5,250.5C 424.567,250.729 422.9,251.562 421.5,253C 418.792,255.619 416.459,258.452 414.5,261.5C 412.888,263.333 411.222,265 409.5,266.5C 406.183,269.121 402.516,271.288 398.5,273C 397.748,273.671 397.414,274.504 397.5,275.5C 395.833,275.5 394.167,275.5 392.5,275.5C 392.5,276.5 392.5,277.5 392.5,278.5C 391.5,279.5 390.5,280.5 389.5,281.5C 387.053,281.615 385.053,282.615 383.5,284.5C 378.626,284.391 374.959,286.391 372.5,290.5C 370.718,291.72 368.718,292.386 366.5,292.5C 366.5,293.5 366.5,294.5 366.5,295.5C 364.801,295.34 363.134,295.506 361.5,296C 356.653,300.508 350.986,303.508 344.5,305C 342.301,306.697 339.968,308.197 337.5,309.5C 336.504,303.537 336.171,297.537 336.5,291.5C 341.221,287.938 346.221,284.938 351.5,282.5C 354.33,282.306 356.996,281.639 359.5,280.5C 359.5,279.5 359.5,278.5 359.5,277.5C 368.749,272.255 377.749,266.589 386.5,260.5C 393.472,257.573 399.639,253.24 405,247.5C 405.495,245.527 405.662,243.527 405.5,241.5C 404.5,241.5 403.5,241.5 402.5,241.5C 400.654,238.522 398.32,235.855 395.5,233.5C 394.264,232.754 392.93,232.421 391.5,232.5C 391.5,231.5 391.5,230.5 391.5,229.5C 389.315,229.296 387.315,228.63 385.5,227.5C 382.5,225.5 379.5,223.5 376.5,221.5C 375.656,219.241 373.989,218.241 371.5,218.5C 371.5,217.5 371.5,216.5 371.5,215.5C 369.833,215.5 368.167,215.5 366.5,215.5C 365.833,215.5 365.5,215.167 365.5,214.5C 364.323,212.968 362.989,211.468 361.5,210C 356.163,208.723 351.496,206.223 347.5,202.5C 340.643,199.764 333.976,196.597 327.5,193C 326.207,192.51 324.873,192.343 323.5,192.5C 321.633,192.045 319.8,191.378 318,190.5C 316.893,190.585 315.893,190.919 315,191.5C 313.579,195.468 314.746,198.135 318.5,199.5C 318.5,199.833 318.5,200.167 318.5,200.5C 319.468,203.1 320.801,205.434 322.5,207.5C 323.038,209.117 323.371,210.784 323.5,212.5C 323.241,214.989 324.241,216.656 326.5,217.5C 326.5,217.833 326.5,218.167 326.5,218.5C 327.925,231.785 328.592,245.118 328.5,258.5C 326.746,262.258 326.079,266.258 326.5,270.5C 325.353,273.41 324.353,276.41 323.5,279.5C 321.259,280.3 320.259,281.966 320.5,284.5C 319.5,284.5 318.5,284.5 317.5,284.5C 317.649,285.552 317.483,286.552 317,287.5C 312.885,291.399 310.051,296.065 308.5,301.5C 304.686,301.651 303.019,303.651 303.5,307.5C 298.065,308.582 296.065,311.915 297.5,317.5C 300.634,318.241 303.634,319.241 306.5,320.5C 311.167,320.5 315.833,320.5 320.5,320.5C 320.833,320.5 321.167,320.5 321.5,320.5C 321.5,326.5 321.5,332.5 321.5,338.5C 317.486,338.666 313.486,338.499 309.5,338C 306.688,336.451 303.688,335.618 300.5,335.5C 300.423,334.25 299.756,333.417 298.5,333C 293.792,332.978 289.792,331.311 286.5,328C 285.207,327.51 283.873,327.343 282.5,327.5C 282.5,326.5 282.5,325.5 282.5,324.5C 275.805,325.005 269.138,325.838 262.5,327C 261.692,327.308 261.025,327.808 260.5,328.5C 245.5,329.833 230.5,329.833 215.5,328.5C 214.975,327.808 214.308,327.308 213.5,327C 206.695,326.874 200.028,326.04 193.5,324.5C 188.312,324.404 183.312,323.404 178.5,321.5C 178.196,320.85 177.863,320.183 177.5,319.5C 172.808,318.897 168.475,317.564 164.5,315.5C 160.564,314.329 156.564,313.329 152.5,312.5C 152.586,311.504 152.252,310.671 151.5,310C 148.748,308.249 145.748,307.416 142.5,307.5C 142.167,307.5 141.833,307.5 141.5,307.5C 140.393,305.031 138.393,304.031 135.5,304.5C 135.167,304.5 134.833,304.5 134.5,304.5C 132.704,302.583 130.704,300.75 128.5,299C 124.633,296.989 120.633,295.156 116.5,293.5C 114.483,292.471 112.483,291.471 110.5,290.5C 110.047,289.542 109.381,288.708 108.5,288C 103.16,285.623 98.1599,282.79 93.5,279.5C 90.1948,276.756 86.8614,273.923 83.5,271C 81.0302,270.011 78.6968,268.845 76.5,267.5C 76.631,266.761 76.4643,266.094 76,265.5C 73.0991,264.763 70.9325,263.097 69.5,260.5C 64.5901,254.618 59.2568,249.284 53.5,244.5C 53.7329,242.938 54.3995,241.605 55.5,240.5C 57.0268,238.061 59.0268,236.061 61.5,234.5C 65.9622,233.086 69.6289,230.419 72.5,226.5C 72.5,225.833 72.8333,225.5 73.5,225.5C 77.8294,224.504 80.4961,221.837 81.5,217.5C 83.1992,217.66 84.8659,217.494 86.5,217C 87.7213,214.966 89.0546,213.133 90.5,211.5C 94.7934,211.023 98.1267,209.023 100.5,205.5C 102.979,204.278 105.312,202.778 107.5,201C 109.167,200.667 110.833,200.333 112.5,200C 116.548,197.645 120.215,194.811 123.5,191.5C 126.084,189.578 128.751,187.745 131.5,186C 132.793,185.51 134.127,185.343 135.5,185.5C 138.247,184.034 141.247,183.201 144.5,183C 145.252,182.329 145.586,181.496 145.5,180.5C 149.26,181.226 151.927,179.893 153.5,176.5C 153.5,176.167 153.5,175.833 153.5,175.5C 155.117,174.962 156.784,174.629 158.5,174.5C 162.976,172.735 167.643,171.402 172.5,170.5C 172.863,169.817 173.196,169.15 173.5,168.5C 173.833,168.5 174.167,168.5 174.5,168.5C 186.882,164.862 199.549,162.196 212.5,160.5C 222.675,160.009 232.842,159.343 243,158.5C 253.477,159.57 263.977,160.236 274.5,160.5 Z"/></g>
<g><path style="opacity:1" fill="#b1c3d5" d="M 282.5,159.5 C 286.384,159.424 290.05,160.09 293.5,161.5C 298.03,161.036 302.03,162.036 305.5,164.5C 300.699,164.311 296.033,163.644 291.5,162.5C 288.215,162.072 285.215,161.072 282.5,159.5 Z"/></g>
<g><path style="opacity:1" fill="#4e76a0" d="M 274.5,160.5 C 274.5,160.167 274.5,159.833 274.5,159.5C 276.167,159.5 277.833,159.5 279.5,159.5C 280.5,159.5 281.5,159.5 282.5,159.5C 285.215,161.072 288.215,162.072 291.5,162.5C 291.5,162.833 291.5,163.167 291.5,163.5C 285.776,162.65 280.109,161.65 274.5,160.5 Z"/></g>
<g><path style="opacity:1" fill="#386694" d="M 204.5,159.5 C 205.5,159.5 206.5,159.5 207.5,159.5C 209.167,159.5 210.833,159.5 212.5,159.5C 212.5,159.833 212.5,160.167 212.5,160.5C 199.549,162.196 186.882,164.862 174.5,168.5C 174.5,168.167 174.5,167.833 174.5,167.5C 175.167,167.5 175.833,167.5 176.5,167.5C 185.787,164.193 195.12,161.526 204.5,159.5 Z"/></g>
<g><path style="opacity:1" fill="#89a4c0" d="M 204.5,159.5 C 195.12,161.526 185.787,164.193 176.5,167.5C 177.59,166.143 178.924,165.143 180.5,164.5C 185.312,162.596 190.312,161.596 195.5,161.5C 198.402,160.422 201.402,159.756 204.5,159.5 Z"/></g>
<g><path style="opacity:1" fill="#809dbb" d="M 291.5,163.5 C 291.5,163.167 291.5,162.833 291.5,162.5C 296.033,163.644 300.699,164.311 305.5,164.5C 306.167,164.5 306.5,164.833 306.5,165.5C 301.673,165.779 297.007,165.113 292.5,163.5C 292.167,163.5 291.833,163.5 291.5,163.5 Z"/></g>
<g><path style="opacity:1" fill="#adc0d3" d="M 180.5,164.5 C 178.924,165.143 177.59,166.143 176.5,167.5C 175.833,167.5 175.167,167.5 174.5,167.5C 175.687,165.025 177.687,164.025 180.5,164.5 Z"/></g>
<g><path style="opacity:1" fill="#4e76a0" d="M 312.5,168.5 C 314.544,169.508 316.544,170.508 318.5,171.5C 317.167,171.5 315.833,171.5 314.5,171.5C 313.833,170.5 313.167,169.5 312.5,168.5 Z"/></g>
<g><path style="opacity:1" fill="#93abc5" d="M 306.5,165.5 C 314.091,167.311 321.425,169.644 328.5,172.5C 333.906,174.972 339.239,177.639 344.5,180.5C 343.833,180.5 343.167,180.5 342.5,180.5C 341.833,180.5 341.167,180.5 340.5,180.5C 337.028,178.262 333.362,176.262 329.5,174.5C 328.167,174.5 326.833,174.5 325.5,174.5C 324.599,172.273 322.933,171.273 320.5,171.5C 319.833,171.5 319.167,171.5 318.5,171.5C 316.544,170.508 314.544,169.508 312.5,168.5C 309.607,168.969 307.607,167.969 306.5,165.5 Z"/></g>
<g><path style="opacity:1" fill="#8aa5c0" d="M 174.5,167.5 C 174.5,167.833 174.5,168.167 174.5,168.5C 174.167,168.5 173.833,168.5 173.5,168.5C 170.212,169.973 166.712,170.973 163,171.5C 161.423,172.551 159.923,173.551 158.5,174.5C 156.784,174.629 155.117,174.962 153.5,175.5C 156.162,173.755 158.996,172.089 162,170.5C 166.314,169.759 170.481,168.759 174.5,167.5 Z"/></g>
<g><path style="opacity:1" fill="#225387" d="M 292.5,163.5 C 297.007,165.113 301.673,165.779 306.5,165.5C 307.607,167.969 309.607,168.969 312.5,168.5C 313.167,169.5 313.833,170.5 314.5,171.5C 307.266,169.899 300.266,167.899 293.5,165.5C 293.137,164.817 292.804,164.15 292.5,163.5 Z"/></g>
<g><path style="opacity:1" fill="#436e9a" d="M 173.5,168.5 C 173.196,169.15 172.863,169.817 172.5,170.5C 167.643,171.402 162.976,172.735 158.5,174.5C 159.923,173.551 161.423,172.551 163,171.5C 166.712,170.973 170.212,169.973 173.5,168.5 Z"/></g>
<g><path style="opacity:1" fill="#3f6b98" d="M 320.5,171.5 C 322.933,171.273 324.599,172.273 325.5,174.5C 322.715,175.084 321.048,174.084 320.5,171.5 Z"/></g>
<g><path style="opacity:1" fill="#4e769f" d="M 269.5,181.5 C 268.167,181.167 266.833,180.833 265.5,180.5C 264.833,180.5 264.167,180.5 263.5,180.5C 260.67,179.265 257.67,178.265 254.5,177.5C 244.225,175.99 233.892,176.323 223.5,178.5C 223.414,177.504 223.748,176.671 224.5,176C 235.5,175.333 246.5,175.333 257.5,176C 260.569,177.846 263.902,178.846 267.5,179C 268.756,179.417 269.423,180.25 269.5,181.5 Z"/></g>
<g><path style="opacity:1" fill="#8aa5c0" d="M 254.5,177.5 C 246.493,177.334 238.493,177.5 230.5,178C 227.69,178.782 225.023,179.616 222.5,180.5C 219.491,181.629 216.491,182.629 213.5,183.5C 212.609,184.11 211.609,184.443 210.5,184.5C 213.93,180.782 218.263,178.782 223.5,178.5C 233.892,176.323 244.225,175.99 254.5,177.5 Z"/></g>
<g><path style="opacity:1" fill="#d5dfe8" d="M 328.5,172.5 C 330.857,172.337 333.19,172.503 335.5,173C 340.539,176.522 345.873,179.688 351.5,182.5C 351.863,183.183 352.196,183.85 352.5,184.5C 349.795,183.147 347.128,181.814 344.5,180.5C 339.239,177.639 333.906,174.972 328.5,172.5 Z"/></g>
<g><path style="opacity:1" fill="#a8bcd0" d="M 153.5,175.5 C 153.5,175.833 153.5,176.167 153.5,176.5C 150.447,176.572 147.781,177.572 145.5,179.5C 142.892,179.4 140.558,180.067 138.5,181.5C 138.953,180.542 139.619,179.708 140.5,179C 144.949,178.004 149.282,176.838 153.5,175.5 Z"/></g>
<g><path style="opacity:1" fill="#315f90" d="M 153.5,176.5 C 151.927,179.893 149.26,181.226 145.5,180.5C 145.5,180.167 145.5,179.833 145.5,179.5C 147.781,177.572 150.447,176.572 153.5,176.5 Z"/></g>
<g><path style="opacity:1" fill="#e2e9ef" d="M 254.5,177.5 C 257.67,178.265 260.67,179.265 263.5,180.5C 249.82,179.428 236.153,179.428 222.5,180.5C 225.023,179.616 227.69,178.782 230.5,178C 238.493,177.5 246.493,177.334 254.5,177.5 Z"/></g>
<g><path style="opacity:1" fill="#f8fafc" d="M 263.5,180.5 C 264.167,180.5 264.833,180.5 265.5,180.5C 270.024,183.909 275.024,186.576 280.5,188.5C 281.833,189.167 282.833,190.167 283.5,191.5C 283.5,192.5 283.5,193.5 283.5,194.5C 284.5,194.5 285.5,194.5 286.5,194.5C 286.5,195.5 286.5,196.5 286.5,197.5C 287.5,197.5 288.5,197.5 289.5,197.5C 291.405,200.304 293.071,203.304 294.5,206.5C 295.5,206.5 296.5,206.5 297.5,206.5C 298.5,208.167 299.833,209.5 301.5,210.5C 301.5,210.833 301.5,211.167 301.5,211.5C 302.63,213.315 303.296,215.315 303.5,217.5C 308.004,229.645 309.67,242.312 308.5,255.5C 308.167,258.167 307.833,260.833 307.5,263.5C 307.5,263.833 307.5,264.167 307.5,264.5C 305.104,268.25 303.104,272.25 301.5,276.5C 301.443,277.609 301.11,278.609 300.5,279.5C 298.259,280.3 297.259,281.966 297.5,284.5C 296.5,284.5 295.5,284.5 294.5,284.5C 294.296,286.685 293.63,288.685 292.5,290.5C 290.5,290.5 289.5,291.5 289.5,293.5C 288.222,293.782 287.222,294.449 286.5,295.5C 284.5,295.833 282.5,296.167 280.5,296.5C 280.169,298.322 279.502,299.989 278.5,301.5C 278.167,301.5 277.833,301.5 277.5,301.5C 274.514,303.485 271.18,304.652 267.5,305C 265.681,305.74 264.348,306.907 263.5,308.5C 261.5,308.833 259.5,309.167 257.5,309.5C 247.161,309.666 236.828,309.5 226.5,309C 223.949,308.139 221.616,306.972 219.5,305.5C 217.257,304.526 214.924,304.192 212.5,304.5C 212.167,304.5 211.833,304.5 211.5,304.5C 209.338,302.103 206.671,300.436 203.5,299.5C 201.72,296.71 199.387,294.71 196.5,293.5C 196.5,292.5 196.5,291.5 196.5,290.5C 194.315,290.296 192.315,289.63 190.5,288.5C 188.693,283.356 185.693,279.023 181.5,275.5C 181.306,272.67 180.639,270.004 179.5,267.5C 179.862,263.919 178.862,260.919 176.5,258.5C 176.167,258.5 175.833,258.5 175.5,258.5C 175.197,249.749 175.53,241.082 176.5,232.5C 177.458,232.047 178.292,231.381 179,230.5C 179.333,226.833 179.667,223.167 180,219.5C 182.985,215.018 186.151,210.685 189.5,206.5C 190.452,204.955 190.785,203.288 190.5,201.5C 194.181,198.088 197.847,194.754 201.5,191.5C 205.709,190.212 209.709,188.545 213.5,186.5C 213.5,185.5 213.5,184.5 213.5,183.5C 216.491,182.629 219.491,181.629 222.5,180.5C 236.153,179.428 249.82,179.428 263.5,180.5 Z"/></g>
<g><path style="opacity:1" fill="#2b598c" d="M 329.5,174.5 C 333.362,176.262 337.028,178.262 340.5,180.5C 337.833,180.5 335.167,180.5 332.5,180.5C 332.5,179.5 332.5,178.5 332.5,177.5C 331.5,177.5 330.5,177.5 329.5,177.5C 329.5,176.5 329.5,175.5 329.5,174.5 Z"/></g>
<g><path style="opacity:1" fill="#698bae" d="M 145.5,179.5 C 145.5,179.833 145.5,180.167 145.5,180.5C 143.167,181.167 140.833,181.833 138.5,182.5C 138.5,182.167 138.5,181.833 138.5,181.5C 140.558,180.067 142.892,179.4 145.5,179.5 Z"/></g>
<g><path style="opacity:1" fill="#d4dee8" d="M 138.5,181.5 C 138.5,181.833 138.5,182.167 138.5,182.5C 138.167,182.5 137.833,182.5 137.5,182.5C 134.428,183.684 131.428,185.017 128.5,186.5C 128.712,184.616 129.712,183.283 131.5,182.5C 133.743,181.526 136.076,181.192 138.5,181.5 Z"/></g>
<g><path style="opacity:1" fill="#99b1c8" d="M 265.5,180.5 C 266.833,180.833 268.167,181.167 269.5,181.5C 269.833,181.5 270.167,181.5 270.5,181.5C 271.899,182.89 273.566,183.89 275.5,184.5C 277.38,184.229 278.713,184.896 279.5,186.5C 279.833,187.167 280.167,187.833 280.5,188.5C 275.024,186.576 270.024,183.909 265.5,180.5 Z"/></g>
<g><path style="opacity:1" fill="#4c759f" d="M 270.5,181.5 C 272.099,181.232 273.432,181.566 274.5,182.5C 274.833,183.167 275.167,183.833 275.5,184.5C 273.566,183.89 271.899,182.89 270.5,181.5 Z"/></g>
<g><path style="opacity:1" fill="#6d8fb1" d="M 342.5,180.5 C 343.167,180.5 343.833,180.5 344.5,180.5C 347.128,181.814 349.795,183.147 352.5,184.5C 352.833,184.5 353.167,184.5 353.5,184.5C 355.249,186.516 357.249,188.182 359.5,189.5C 353.484,187.058 347.817,184.058 342.5,180.5 Z"/></g>
<g><path style="opacity:1" fill="#2b5b8d" d="M 145.5,180.5 C 145.586,181.496 145.252,182.329 144.5,183C 141.247,183.201 138.247,184.034 135.5,185.5C 136.167,184.5 136.833,183.5 137.5,182.5C 137.833,182.5 138.167,182.5 138.5,182.5C 140.833,181.833 143.167,181.167 145.5,180.5 Z"/></g>
<g><path style="opacity:1" fill="#245387" d="M 274.5,182.5 C 278.674,182.847 282.341,184.18 285.5,186.5C 285.5,187.5 285.5,188.5 285.5,189.5C 286.5,189.5 287.5,189.5 288.5,189.5C 288.5,190.5 288.5,191.5 288.5,192.5C 290.484,192.383 292.15,193.05 293.5,194.5C 294.92,196.709 296.587,198.709 298.5,200.5C 299.429,201.689 299.762,203.022 299.5,204.5C 296.859,202.196 294.192,199.862 291.5,197.5C 290.167,195.833 288.833,194.167 287.5,192.5C 285.17,190.186 282.504,188.186 279.5,186.5C 278.713,184.896 277.38,184.229 275.5,184.5C 275.167,183.833 274.833,183.167 274.5,182.5 Z"/></g>
<g><path style="opacity:1" fill="#d5dfe8" d="M 213.5,183.5 C 213.5,184.5 213.5,185.5 213.5,186.5C 209.709,188.545 205.709,190.212 201.5,191.5C 204.205,188.795 207.205,186.462 210.5,184.5C 211.609,184.443 212.609,184.11 213.5,183.5 Z"/></g>
<g><path style="opacity:1" fill="#6185aa" d="M 279.5,186.5 C 282.504,188.186 285.17,190.186 287.5,192.5C 286.292,191.766 284.959,191.433 283.5,191.5C 282.833,190.167 281.833,189.167 280.5,188.5C 280.167,187.833 279.833,187.167 279.5,186.5 Z"/></g>
<g><path style="opacity:1" fill="#7998b7" d="M 137.5,182.5 C 136.833,183.5 136.167,184.5 135.5,185.5C 134.127,185.343 132.793,185.51 131.5,186C 128.751,187.745 126.084,189.578 123.5,191.5C 118.41,193.641 113.41,195.974 108.5,198.5C 108.414,197.504 108.748,196.671 109.5,196C 112.53,195.422 115.197,194.255 117.5,192.5C 121.647,191.241 125.314,189.241 128.5,186.5C 131.428,185.017 134.428,183.684 137.5,182.5 Z"/></g>
<g><path style="opacity:1" fill="#9ab6df" d="M 257.5,189.5 C 261.037,191.098 264.704,192.431 268.5,193.5C 268.5,193.833 268.5,194.167 268.5,194.5C 262.699,192.516 256.699,191.016 250.5,190C 241.733,189.192 233.066,189.692 224.5,191.5C 224.5,191.167 224.5,190.833 224.5,190.5C 225.5,190.5 226.5,190.5 227.5,190.5C 237.376,188.202 247.376,187.868 257.5,189.5 Z"/></g>
<g><path style="opacity:1" fill="#d3dde7" d="M 128.5,186.5 C 125.314,189.241 121.647,191.241 117.5,192.5C 117.5,191.5 117.5,190.5 117.5,189.5C 119.167,189.5 120.833,189.5 122.5,189.5C 122.5,188.5 122.5,187.5 122.5,186.5C 124.5,186.5 126.5,186.5 128.5,186.5 Z"/></g>
<g><path style="opacity:1" fill="#7997b7" d="M 210.5,184.5 C 207.205,186.462 204.205,188.795 201.5,191.5C 197.847,194.754 194.181,198.088 190.5,201.5C 190.167,201.5 189.833,201.5 189.5,201.5C 190.072,199.745 190.906,198.078 192,196.5C 196.28,194.385 199.78,191.385 202.5,187.5C 204.816,185.506 207.482,184.506 210.5,184.5 Z"/></g>
<g><path style="opacity:1" fill="#e3ebf6" d="M 268.5,193.5 C 264.704,192.431 261.037,191.098 257.5,189.5C 253.386,188.174 248.886,187.507 244,187.5C 239.5,187.667 235,187.833 230.5,188C 228.881,188.236 227.881,189.069 227.5,190.5C 226.5,190.5 225.5,190.5 224.5,190.5C 222.142,190.253 220.142,190.919 218.5,192.5C 218.414,191.504 218.748,190.671 219.5,190C 221.81,189.503 224.143,189.337 226.5,189.5C 226.5,188.5 226.5,187.5 226.5,186.5C 237.172,186.333 247.839,186.5 258.5,187C 262.372,188.43 265.705,190.596 268.5,193.5 Z"/></g>
<g><path style="opacity:1" fill="#bed0ea" d="M 257.5,189.5 C 247.376,187.868 237.376,188.202 227.5,190.5C 227.881,189.069 228.881,188.236 230.5,188C 235,187.833 239.5,187.667 244,187.5C 248.886,187.507 253.386,188.174 257.5,189.5 Z"/></g>
<g><path style="opacity:1" fill="#7da2d6" d="M 268.5,194.5 C 269.808,196.638 269.475,198.638 267.5,200.5C 266.292,201.234 264.959,201.567 263.5,201.5C 261.86,205.966 261.36,210.633 262,215.5C 262.973,217.392 263.64,219.392 264,221.5C 264.708,222.381 265.542,223.047 266.5,223.5C 268.31,228.916 272.144,230.916 278,229.5C 283.458,230.382 286.958,228.382 288.5,223.5C 289.5,223.5 290.5,223.5 291.5,223.5C 293.43,227.549 294.597,231.882 295,236.5C 295.671,237.252 296.504,237.586 297.5,237.5C 297.5,243.5 297.5,249.5 297.5,255.5C 296.883,255.611 296.383,255.944 296,256.5C 295.051,261.338 293.718,266.005 292,270.5C 289.816,273.442 287.816,276.442 286,279.5C 279.851,285.504 273.351,290.838 266.5,295.5C 265.5,295.5 264.5,295.5 263.5,295.5C 260.171,295.264 257.171,296.097 254.5,298C 245.5,298.667 236.5,298.667 227.5,298C 223.983,295.901 220.316,294.401 216.5,293.5C 211.005,290.524 206.172,286.524 202,281.5C 200.562,280.1 199.729,278.433 199.5,276.5C 198.5,276.5 197.5,276.5 196.5,276.5C 195.471,274.483 194.471,272.483 193.5,270.5C 191.297,265.921 189.964,260.921 189.5,255.5C 188.336,248.858 188.169,242.192 189,235.5C 190.069,229.299 191.735,223.299 194,217.5C 197.342,213.826 201.008,210.492 205,207.5C 205.384,204.94 206.217,202.606 207.5,200.5C 212.919,197.092 218.586,194.092 224.5,191.5C 233.066,189.692 241.733,189.192 250.5,190C 256.699,191.016 262.699,192.516 268.5,194.5 Z"/></g>
<g><path style="opacity:1" fill="#396694" d="M 169.5,195.5 C 169.5,194.167 169.5,192.833 169.5,191.5C 167.379,191.325 165.379,191.659 163.5,192.5C 165.635,190.631 168.302,189.964 171.5,190.5C 171.88,192.698 171.213,194.365 169.5,195.5 Z"/></g>
<g><path style="opacity:1" fill="#b8cce8" d="M 224.5,190.5 C 224.5,190.833 224.5,191.167 224.5,191.5C 218.586,194.092 212.919,197.092 207.5,200.5C 204.167,203.5 200.833,206.5 197.5,209.5C 202.429,201.234 209.429,195.568 218.5,192.5C 220.142,190.919 222.142,190.253 224.5,190.5 Z"/></g>
<g><path style="opacity:1" fill="#587ea5" d="M 323.5,192.5 C 323.5,192.833 323.5,193.167 323.5,193.5C 321.139,193.326 318.806,192.993 316.5,192.5C 316.4,195.108 317.067,197.442 318.5,199.5C 314.746,198.135 313.579,195.468 315,191.5C 315.893,190.919 316.893,190.585 318,190.5C 319.8,191.378 321.633,192.045 323.5,192.5 Z"/></g>
<g><path style="opacity:1" fill="#c6d3e0" d="M 353.5,184.5 C 354.873,184.343 356.207,184.51 357.5,185C 362.491,188.393 367.825,191.06 373.5,193C 375.058,195.052 376.392,197.219 377.5,199.5C 375.938,199.267 374.605,198.6 373.5,197.5C 373.167,197.5 372.833,197.5 372.5,197.5C 372.047,196.542 371.381,195.708 370.5,195C 366.736,193.221 363.069,191.388 359.5,189.5C 357.249,188.182 355.249,186.516 353.5,184.5 Z"/></g>
<g><path style="opacity:1" fill="#5d82a8" d="M 163.5,192.5 C 161.75,193.87 159.75,194.87 157.5,195.5C 158.784,193.386 160.784,192.386 163.5,192.5 Z"/></g>
<g><path style="opacity:1" fill="#a4b9ce" d="M 169.5,195.5 C 167.833,198.831 166.167,202.165 164.5,205.5C 162.461,206.672 161.128,208.338 160.5,210.5C 160.343,209.127 160.51,207.793 161,206.5C 163.567,202.923 165.734,199.09 167.5,195C 164.672,194.031 162.338,194.697 160.5,197C 157.301,197.401 154.301,198.234 151.5,199.5C 151.5,199.167 151.5,198.833 151.5,198.5C 153.544,197.492 155.544,196.492 157.5,195.5C 159.75,194.87 161.75,193.87 163.5,192.5C 165.379,191.659 167.379,191.325 169.5,191.5C 169.5,192.833 169.5,194.167 169.5,195.5 Z"/></g>
<g><path style="opacity:1" fill="#b0c2d4" d="M 323.5,193.5 C 323.5,193.833 323.5,194.167 323.5,194.5C 321.473,194.338 319.473,194.505 317.5,195C 319.155,196.444 319.822,198.278 319.5,200.5C 319.167,200.5 318.833,200.5 318.5,200.5C 318.5,200.167 318.5,199.833 318.5,199.5C 317.067,197.442 316.4,195.108 316.5,192.5C 318.806,192.993 321.139,193.326 323.5,193.5 Z"/></g>
<g><path style="opacity:1" fill="#7997b7" d="M 323.5,194.5 C 323.5,194.167 323.5,193.833 323.5,193.5C 325.544,194.508 327.544,195.508 329.5,196.5C 327.142,196.747 325.142,196.081 323.5,194.5 Z"/></g>
<g><path style="opacity:1" fill="#6387ab" d="M 157.5,195.5 C 155.544,196.492 153.544,197.492 151.5,198.5C 152.687,196.025 154.687,195.025 157.5,195.5 Z"/></g>
<g><path style="opacity:1" fill="#d0dcf0" d="M 268.5,194.5 C 268.5,194.167 268.5,193.833 268.5,193.5C 270.167,193.5 271.833,193.5 273.5,193.5C 274.418,198.495 272.418,200.828 267.5,200.5C 269.475,198.638 269.808,196.638 268.5,194.5 Z"/></g>
<g><path style="opacity:1" fill="#446e9a" d="M 359.5,189.5 C 363.069,191.388 366.736,193.221 370.5,195C 371.381,195.708 372.047,196.542 372.5,197.5C 371.07,197.579 369.736,197.246 368.5,196.5C 365.283,194.333 362.283,191.999 359.5,189.5 Z"/></g>
<g><path style="opacity:1" fill="#fcfdfd" d="M 160.5,210.5 C 159.21,211.058 158.377,212.058 158,213.5C 157.332,218.273 156.499,222.94 155.5,227.5C 154.833,227.5 154.5,227.833 154.5,228.5C 152.933,229.681 152.099,231.347 152,233.5C 151.333,240.833 151.333,248.167 152,255.5C 152.236,257.119 153.069,258.119 154.5,258.5C 154.335,262.182 154.501,265.848 155,269.5C 155.414,269.957 155.914,270.291 156.5,270.5C 157.647,275.657 159.314,280.657 161.5,285.5C 162.522,287.855 164.188,289.522 166.5,290.5C 166.5,290.833 166.5,291.167 166.5,291.5C 166.511,293.017 167.177,294.184 168.5,295C 167.833,295.167 167.167,295.333 166.5,295.5C 163.459,293.761 160.459,291.927 157.5,290C 154.054,289.339 150.721,288.505 147.5,287.5C 147.167,287.5 146.833,287.5 146.5,287.5C 146.047,286.542 145.381,285.708 144.5,285C 140.751,284.082 137.084,282.915 133.5,281.5C 133.586,280.504 133.252,279.671 132.5,279C 129.228,276.433 125.561,274.6 121.5,273.5C 121.67,272.178 121.337,271.011 120.5,270C 116.895,270.334 114.561,268.834 113.5,265.5C 108.469,262.949 103.469,260.615 98.5,258.5C 95.7519,256.579 93.4186,254.079 91.5,251C 90.2068,250.51 88.8734,250.343 87.5,250.5C 86.741,248.564 85.741,246.731 84.5,245C 85.4138,243.594 86.0805,242.094 86.5,240.5C 86.5,239.833 86.8333,239.5 87.5,239.5C 90.9685,237.854 94.3018,236.02 97.5,234C 99.4388,232.568 100.772,230.735 101.5,228.5C 101.833,228.5 102.167,228.5 102.5,228.5C 104.886,227.627 106.886,226.127 108.5,224C 112.23,223.589 115.564,222.256 118.5,220C 119.252,219.329 119.586,218.496 119.5,217.5C 119.5,217.167 119.5,216.833 119.5,216.5C 124.615,213.382 129.948,210.716 135.5,208.5C 141.378,206.247 146.712,203.247 151.5,199.5C 154.301,198.234 157.301,197.401 160.5,197C 162.338,194.697 164.672,194.031 167.5,195C 165.734,199.09 163.567,202.923 161,206.5C 160.51,207.793 160.343,209.127 160.5,210.5 Z"/></g>
<g><path style="opacity:1" fill="#829fbc" d="M 329.5,196.5 C 332.1,197.468 334.434,198.801 336.5,200.5C 333.454,200.275 331.121,198.942 329.5,196.5 Z"/></g>
<g><path style="opacity:1" fill="#9ab1c8" d="M 291.5,197.5 C 294.192,199.862 296.859,202.196 299.5,204.5C 299.5,205.167 299.5,205.833 299.5,206.5C 300.6,207.605 301.267,208.938 301.5,210.5C 299.833,209.5 298.5,208.167 297.5,206.5C 295.516,203.511 293.516,200.511 291.5,197.5 Z"/></g>
<g><path style="opacity:1" fill="#dde4ec" d="M 283.5,191.5 C 284.959,191.433 286.292,191.766 287.5,192.5C 288.833,194.167 290.167,195.833 291.5,197.5C 293.516,200.511 295.516,203.511 297.5,206.5C 296.5,206.5 295.5,206.5 294.5,206.5C 293.071,203.304 291.405,200.304 289.5,197.5C 288.5,197.5 287.5,197.5 286.5,197.5C 286.5,196.5 286.5,195.5 286.5,194.5C 285.5,194.5 284.5,194.5 283.5,194.5C 283.5,193.5 283.5,192.5 283.5,191.5 Z"/></g>
<g><path style="opacity:1" fill="#6184a9" d="M 373.5,197.5 C 374.605,198.6 375.938,199.267 377.5,199.5C 378.167,199.5 378.833,199.5 379.5,199.5C 380.527,201.194 381.861,202.527 383.5,203.5C 380.626,202.156 377.626,200.99 374.5,200C 373.748,199.329 373.414,198.496 373.5,197.5 Z"/></g>
<g><path style="opacity:1" fill="#bbcbda" d="M 379.5,199.5 C 382.644,200.433 385.311,202.1 387.5,204.5C 386.833,204.5 386.167,204.5 385.5,204.5C 384.833,204.167 384.167,203.833 383.5,203.5C 381.861,202.527 380.527,201.194 379.5,199.5 Z"/></g>
<g><path style="opacity:1" fill="#3d6896" d="M 123.5,191.5 C 120.215,194.811 116.548,197.645 112.5,200C 110.833,200.333 109.167,200.667 107.5,201C 105.312,202.778 102.979,204.278 100.5,205.5C 103.109,203.168 105.775,200.835 108.5,198.5C 113.41,195.974 118.41,193.641 123.5,191.5 Z"/></g>
<g><path style="opacity:1" fill="#5d83a8" d="M 318.5,200.5 C 318.833,200.5 319.167,200.5 319.5,200.5C 321.075,202.547 322.075,204.881 322.5,207.5C 320.801,205.434 319.468,203.1 318.5,200.5 Z"/></g>
<g><path style="opacity:1" fill="#7b99b8" d="M 336.5,200.5 C 340.936,201.414 344.936,203.081 348.5,205.5C 345.892,205.6 343.558,204.933 341.5,203.5C 339.435,203.047 337.768,202.047 336.5,200.5 Z"/></g>
<g><path style="opacity:1" fill="#8da7c2" d="M 108.5,198.5 C 105.775,200.835 103.109,203.168 100.5,205.5C 99.391,205.557 98.391,205.89 97.5,206.5C 98.759,205.021 99.759,203.354 100.5,201.5C 103.167,200.5 105.833,199.5 108.5,198.5 Z"/></g>
<g><path style="opacity:1" fill="#547ba3" d="M 151.5,198.5 C 151.5,198.833 151.5,199.167 151.5,199.5C 150.127,199.343 148.793,199.51 147.5,200C 144.179,201.833 140.845,203.666 137.5,205.5C 136.391,205.557 135.391,205.89 134.5,206.5C 139.342,202.318 145.009,199.652 151.5,198.5 Z"/></g>
<g><path style="opacity:1" fill="#c5d2e0" d="M 151.5,199.5 C 146.712,203.247 141.378,206.247 135.5,208.5C 136.167,207.5 136.833,206.5 137.5,205.5C 140.845,203.666 144.179,201.833 147.5,200C 148.793,199.51 150.127,199.343 151.5,199.5 Z"/></g>
<g><path style="opacity:1" fill="#cbd7e3" d="M 189.5,201.5 C 189.833,201.5 190.167,201.5 190.5,201.5C 190.785,203.288 190.452,204.955 189.5,206.5C 186.151,210.685 182.985,215.018 180,219.5C 179.667,223.167 179.333,226.833 179,230.5C 178.292,231.381 177.458,232.047 176.5,232.5C 176.401,229.763 176.735,227.096 177.5,224.5C 178.15,222.565 178.483,220.565 178.5,218.5C 182.71,213.241 186.376,207.574 189.5,201.5 Z"/></g>
<g><path style="opacity:1" fill="#cdd8e4" d="M 319.5,200.5 C 321.912,200.694 322.912,202.027 322.5,204.5C 323.5,204.5 324.5,204.5 325.5,204.5C 325.5,205.833 325.5,207.167 325.5,208.5C 324.391,208.443 323.391,208.11 322.5,207.5C 322.075,204.881 321.075,202.547 319.5,200.5 Z"/></g>
<g><path style="opacity:1" fill="#6d8eb0" d="M 189.5,201.5 C 186.376,207.574 182.71,213.241 178.5,218.5C 180.046,216.118 180.713,213.451 180.5,210.5C 181.5,210.5 182.5,210.5 183.5,210.5C 184.352,207.777 185.519,205.11 187,202.5C 187.671,201.748 188.504,201.414 189.5,201.5 Z"/></g>
<g><path style="opacity:1" fill="#abbfd2" d="M 341.5,203.5 C 343.558,204.933 345.892,205.6 348.5,205.5C 349.59,206.857 350.924,207.857 352.5,208.5C 349.445,207.964 346.445,207.131 343.5,206C 342.244,205.583 341.577,204.75 341.5,203.5 Z"/></g>
<g><path style="opacity:1" fill="#376392" d="M 323.5,193.5 C 323.5,193.167 323.5,192.833 323.5,192.5C 324.873,192.343 326.207,192.51 327.5,193C 333.976,196.597 340.643,199.764 347.5,202.5C 351.496,206.223 356.163,208.723 361.5,210C 362.989,211.468 364.323,212.968 365.5,214.5C 363.132,213.986 361.132,212.82 359.5,211C 358.207,210.51 356.873,210.343 355.5,210.5C 355.027,209.094 354.027,208.427 352.5,208.5C 350.924,207.857 349.59,206.857 348.5,205.5C 344.936,203.081 340.936,201.414 336.5,200.5C 334.434,198.801 332.1,197.468 329.5,196.5C 327.544,195.508 325.544,194.508 323.5,193.5 Z"/></g>
<g><path style="opacity:1" fill="#4c759f" d="M 164.5,205.5 C 162.526,210.068 160.859,214.735 159.5,219.5C 159.167,219.5 158.833,219.5 158.5,219.5C 159.167,216.5 159.833,213.5 160.5,210.5C 161.128,208.338 162.461,206.672 164.5,205.5 Z"/></g>
<g><path style="opacity:1" fill="#e4eaf0" d="M 100.5,201.5 C 99.759,203.354 98.759,205.021 97.5,206.5C 93.2045,207.981 89.2045,209.981 85.5,212.5C 85.5,211.5 85.5,210.5 85.5,209.5C 90.2271,206.468 95.2271,203.801 100.5,201.5 Z"/></g>
<g><path style="opacity:1" fill="#2e5d8e" d="M 100.5,205.5 C 98.1267,209.023 94.7934,211.023 90.5,211.5C 92.7331,209.652 95.0664,207.985 97.5,206.5C 98.391,205.89 99.391,205.557 100.5,205.5 Z"/></g>
<g><path style="opacity:1" fill="#416d99" d="M 131.5,207.5 C 129.338,209.897 126.671,211.564 123.5,212.5C 123.369,211.624 123.702,210.957 124.5,210.5C 126.974,209.68 129.307,208.68 131.5,207.5 Z"/></g>
<g><path style="opacity:1" fill="#bcccdb" d="M 352.5,208.5 C 354.027,208.427 355.027,209.094 355.5,210.5C 355.5,210.833 355.5,211.167 355.5,211.5C 354.5,211.5 353.5,211.5 352.5,211.5C 352.5,210.5 352.5,209.5 352.5,208.5 Z"/></g>
<g><path style="opacity:1" fill="#7091b2" d="M 355.5,211.5 C 355.5,211.167 355.5,210.833 355.5,210.5C 356.873,210.343 358.207,210.51 359.5,211C 361.132,212.82 363.132,213.986 365.5,214.5C 365.5,215.167 365.833,215.5 366.5,215.5C 366.5,215.833 366.5,216.167 366.5,216.5C 364.938,216.267 363.605,215.6 362.5,214.5C 360.372,213.043 358.038,212.043 355.5,211.5 Z"/></g>
<g><path style="opacity:1" fill="#7897b7" d="M 385.5,204.5 C 386.167,204.5 386.833,204.5 387.5,204.5C 391.231,208.237 395.231,211.57 399.5,214.5C 394.014,212.353 389.348,209.02 385.5,204.5 Z"/></g>
<g><path style="opacity:1" fill="#cfdae5" d="M 387.5,204.5 C 390.451,205.822 393.451,207.155 396.5,208.5C 398.993,212.842 402.66,215.342 407.5,216C 408.665,217.992 409.998,219.825 411.5,221.5C 409.5,220.5 407.5,219.5 405.5,218.5C 403.5,217.167 401.5,215.833 399.5,214.5C 395.231,211.57 391.231,208.237 387.5,204.5 Z"/></g>
<g><path style="opacity:1" fill="#416d98" d="M 299.5,206.5 C 300.496,206.414 301.329,206.748 302,207.5C 303.879,209.871 305.045,212.538 305.5,215.5C 304.527,213.861 303.194,212.527 301.5,211.5C 301.5,211.167 301.5,210.833 301.5,210.5C 301.267,208.938 300.6,207.605 299.5,206.5 Z"/></g>
<g><path style="opacity:1" fill="#97afc7" d="M 137.5,205.5 C 136.833,206.5 136.167,207.5 135.5,208.5C 129.948,210.716 124.615,213.382 119.5,216.5C 120.5,215.167 121.5,213.833 122.5,212.5C 122.833,212.5 123.167,212.5 123.5,212.5C 126.671,211.564 129.338,209.897 131.5,207.5C 132.791,207.737 133.791,207.404 134.5,206.5C 135.391,205.89 136.391,205.557 137.5,205.5 Z"/></g>
<g><path style="opacity:1" fill="#9ab1c9" d="M 97.5,206.5 C 95.0664,207.985 92.7331,209.652 90.5,211.5C 88.1667,212.833 85.8333,214.167 83.5,215.5C 83.7822,214.222 84.4489,213.222 85.5,212.5C 89.2045,209.981 93.2045,207.981 97.5,206.5 Z"/></g>
<g><path style="opacity:1" fill="#3d6a97" d="M 122.5,212.5 C 121.5,213.833 120.5,215.167 119.5,216.5C 117.446,216.365 115.779,217.032 114.5,218.5C 114.5,217.5 114.5,216.5 114.5,215.5C 117.553,215.428 120.219,214.428 122.5,212.5 Z"/></g>
<g><path style="opacity:1" fill="#8ca7c1" d="M 322.5,207.5 C 323.391,208.11 324.391,208.443 325.5,208.5C 325.5,209.833 325.5,211.167 325.5,212.5C 327.081,214.142 327.747,216.142 327.5,218.5C 327.167,218.5 326.833,218.5 326.5,218.5C 326.5,218.167 326.5,217.833 326.5,217.5C 325.89,215.566 324.89,213.899 323.5,212.5C 323.371,210.784 323.038,209.117 322.5,207.5 Z"/></g>
<g><path style="opacity:1" fill="#426e99" d="M 323.5,212.5 C 324.89,213.899 325.89,215.566 326.5,217.5C 324.241,216.656 323.241,214.989 323.5,212.5 Z"/></g>
<g><path style="opacity:1" fill="#3a6594" d="M 90.5,211.5 C 89.0546,213.133 87.7213,214.966 86.5,217C 84.8659,217.494 83.1992,217.66 81.5,217.5C 82.1667,216.833 82.8333,216.167 83.5,215.5C 85.8333,214.167 88.1667,212.833 90.5,211.5 Z"/></g>
<g><path style="opacity:1" fill="#8aa4c0" d="M 119.5,216.5 C 119.5,216.833 119.5,217.167 119.5,217.5C 117.678,217.831 116.011,218.498 114.5,219.5C 114.5,219.167 114.5,218.833 114.5,218.5C 115.779,217.032 117.446,216.365 119.5,216.5 Z"/></g>
<g><path style="opacity:1" fill="#2b5a8c" d="M 366.5,216.5 C 366.5,216.167 366.5,215.833 366.5,215.5C 368.167,215.5 369.833,215.5 371.5,215.5C 371.5,216.5 371.5,217.5 371.5,218.5C 373.989,218.241 375.656,219.241 376.5,221.5C 374.833,220.833 373.167,220.167 371.5,219.5C 369.646,218.759 367.979,217.759 366.5,216.5 Z"/></g>
<g><path style="opacity:1" fill="#325d8f" d="M 399.5,214.5 C 401.5,215.833 403.5,217.167 405.5,218.5C 405.833,219.167 406.167,219.833 406.5,220.5C 404.833,220.5 403.167,220.5 401.5,220.5C 401.296,218.315 400.63,216.315 399.5,214.5 Z"/></g>
<g><path style="opacity:1" fill="#99b1c8" d="M 83.5,215.5 C 82.8333,216.167 82.1667,216.833 81.5,217.5C 79.4268,219.58 77.0934,221.246 74.5,222.5C 76.6676,218.988 79.6676,216.655 83.5,215.5 Z"/></g>
<g><path style="opacity:1" fill="#366392" d="M 81.5,217.5 C 80.4961,221.837 77.8294,224.504 73.5,225.5C 73.5569,224.391 73.8902,223.391 74.5,222.5C 77.0934,221.246 79.4268,219.58 81.5,217.5 Z"/></g>
<g><path style="opacity:1" fill="#c3d1df" d="M 362.5,214.5 C 363.605,215.6 364.938,216.267 366.5,216.5C 367.979,217.759 369.646,218.759 371.5,219.5C 372.527,221.194 373.861,222.527 375.5,223.5C 372.493,222.486 369.493,221.486 366.5,220.5C 366.5,219.5 366.5,218.5 366.5,217.5C 364.027,217.912 362.694,216.912 362.5,214.5 Z"/></g>
<g><path style="opacity:1" fill="#c6d2e0" d="M 119.5,217.5 C 119.586,218.496 119.252,219.329 118.5,220C 115.564,222.256 112.23,223.589 108.5,224C 106.886,226.127 104.886,227.627 102.5,228.5C 103.5,227.167 104.5,225.833 105.5,224.5C 108.622,223.018 111.622,221.351 114.5,219.5C 116.011,218.498 117.678,217.831 119.5,217.5 Z"/></g>
<g><path style="opacity:1" fill="#8ba6c1" d="M 160.5,210.5 C 159.833,213.5 159.167,216.5 158.5,219.5C 157.249,222.132 156.249,224.799 155.5,227.5C 156.499,222.94 157.332,218.273 158,213.5C 158.377,212.058 159.21,211.058 160.5,210.5 Z"/></g>
<g><path style="opacity:1" fill="#bccbdb" d="M 325.5,212.5 C 326.496,212.414 327.329,212.748 328,213.5C 328.332,217.695 329.165,221.695 330.5,225.5C 329.833,224.5 329.167,223.5 328.5,222.5C 327.566,221.432 327.232,220.099 327.5,218.5C 327.747,216.142 327.081,214.142 325.5,212.5 Z"/></g>
<g><path style="opacity:1" fill="#9eb5cb" d="M 405.5,218.5 C 407.5,219.5 409.5,220.5 411.5,221.5C 414.167,223.5 416.5,225.833 418.5,228.5C 416.938,228.267 415.605,227.6 414.5,226.5C 412.018,224.325 409.352,222.325 406.5,220.5C 406.167,219.833 405.833,219.167 405.5,218.5 Z"/></g>
<g><path style="opacity:1" fill="#456f9a" d="M 114.5,218.5 C 114.5,218.833 114.5,219.167 114.5,219.5C 111.622,221.351 108.622,223.018 105.5,224.5C 106.969,220.251 109.969,218.251 114.5,218.5 Z"/></g>
<g><path style="opacity:1" fill="#3a6694" d="M 178.5,218.5 C 178.483,220.565 178.15,222.565 177.5,224.5C 176.015,226.249 175.015,228.249 174.5,230.5C 174.336,227.813 174.503,225.146 175,222.5C 176.55,221.409 177.717,220.076 178.5,218.5 Z"/></g>
<g><path style="opacity:1" fill="#6f90b1" d="M 301.5,211.5 C 303.194,212.527 304.527,213.861 305.5,215.5C 308.518,221.515 310.518,227.849 311.5,234.5C 311.72,241.543 311.386,248.543 310.5,255.5C 310.167,255.5 309.833,255.5 309.5,255.5C 310.31,243.721 309.31,232.221 306.5,221C 305.629,219.636 304.629,218.47 303.5,217.5C 303.296,215.315 302.63,213.315 301.5,211.5 Z"/></g>
<g><path style="opacity:1" fill="#b3c8e7" d="M 267.5,200.5 C 267.315,202.196 266.481,203.529 265,204.5C 261.408,217.214 266.075,224.214 279,225.5C 282.315,224.558 285.482,223.225 288.5,221.5C 287.977,223.708 286.644,225.208 284.5,226C 278.158,227.048 272.158,226.215 266.5,223.5C 265.542,223.047 264.708,222.381 264,221.5C 263.64,219.392 262.973,217.392 262,215.5C 261.36,210.633 261.86,205.966 263.5,201.5C 264.959,201.567 266.292,201.234 267.5,200.5 Z"/></g>
<g><path style="opacity:1" fill="#7695b6" d="M 74.5,222.5 C 73.8902,223.391 73.5569,224.391 73.5,225.5C 72.8333,225.5 72.5,225.833 72.5,226.5C 70.8333,227.167 69.1667,227.833 67.5,228.5C 69.1017,225.654 71.435,223.654 74.5,222.5 Z"/></g>
<g><path style="opacity:1" fill="#89aad9" d="M 293.5,220.5 C 294.59,226.295 295.923,231.961 297.5,237.5C 296.504,237.586 295.671,237.252 295,236.5C 294.597,231.882 293.43,227.549 291.5,223.5C 290.5,223.5 289.5,223.5 288.5,223.5C 286.958,228.382 283.458,230.382 278,229.5C 272.144,230.916 268.31,228.916 266.5,223.5C 272.158,226.215 278.158,227.048 284.5,226C 286.644,225.208 287.977,223.708 288.5,221.5C 289.479,220.235 290.479,218.901 291.5,217.5C 292.919,218.005 293.585,219.005 293.5,220.5 Z"/></g>
<g><path style="opacity:1" fill="#dfe7f4" d="M 196.5,210.5 C 193.395,215.475 191.062,220.808 189.5,226.5C 188.5,227.167 187.5,227.833 186.5,228.5C 187.491,224.857 188.491,221.191 189.5,217.5C 192.27,215.397 194.604,213.063 196.5,210.5 Z"/></g>
<g><path style="opacity:1" fill="#6f8fb1" d="M 371.5,219.5 C 373.167,220.167 374.833,220.833 376.5,221.5C 379.5,223.5 382.5,225.5 385.5,227.5C 386.401,229.727 388.067,230.727 390.5,230.5C 390.527,232.199 391.194,233.533 392.5,234.5C 389.51,233.378 386.843,231.544 384.5,229C 381.107,227.645 378.107,225.812 375.5,223.5C 373.861,222.527 372.527,221.194 371.5,219.5 Z"/></g>
<g><path style="opacity:1" fill="#7191b2" d="M 105.5,224.5 C 104.5,225.833 103.5,227.167 102.5,228.5C 102.167,228.5 101.833,228.5 101.5,228.5C 99.7499,229.742 98.0832,231.242 96.5,233C 93.7334,234.161 91.0668,235.327 88.5,236.5C 92.4136,233.909 96.0803,230.909 99.5,227.5C 101.534,226.441 103.534,225.441 105.5,224.5 Z"/></g>
<g><path style="opacity:1" fill="#ccd8e4" d="M 303.5,217.5 C 304.629,218.47 305.629,219.636 306.5,221C 309.31,232.221 310.31,243.721 309.5,255.5C 309.167,255.5 308.833,255.5 308.5,255.5C 309.67,242.312 308.004,229.645 303.5,217.5 Z"/></g>
<g><path style="opacity:1" fill="#315e8f" d="M 385.5,227.5 C 387.315,228.63 389.315,229.296 391.5,229.5C 391.5,230.5 391.5,231.5 391.5,232.5C 392.93,232.421 394.264,232.754 395.5,233.5C 398.32,235.855 400.654,238.522 402.5,241.5C 401.234,240.91 399.901,240.41 398.5,240C 396.955,237.62 394.955,235.786 392.5,234.5C 391.194,233.533 390.527,232.199 390.5,230.5C 388.067,230.727 386.401,229.727 385.5,227.5 Z"/></g>
<g><path style="opacity:1" fill="#2d5a8c" d="M 72.5,226.5 C 69.6289,230.419 65.9622,233.086 61.5,234.5C 62.8333,232.833 64.1667,231.167 65.5,229.5C 66.1667,229.167 66.8333,228.833 67.5,228.5C 69.1667,227.833 70.8333,227.167 72.5,226.5 Z"/></g>
<g><path style="opacity:1" fill="#5f83a9" d="M 414.5,226.5 C 415.605,227.6 416.938,228.267 418.5,228.5C 419.605,229.6 420.938,230.267 422.5,230.5C 422.5,231.167 422.5,231.833 422.5,232.5C 422.833,233.167 423.167,233.833 423.5,234.5C 421.03,232.555 418.363,230.722 415.5,229C 414.748,228.329 414.414,227.496 414.5,226.5 Z"/></g>
<g><path style="opacity:1" fill="#96b3dd" d="M 207.5,200.5 C 206.217,202.606 205.384,204.94 205,207.5C 201.008,210.492 197.342,213.826 194,217.5C 191.735,223.299 190.069,229.299 189,235.5C 188.169,242.192 188.336,248.858 189.5,255.5C 189.964,260.921 191.297,265.921 193.5,270.5C 191.665,269.878 190.498,268.544 190,266.5C 188.438,262.986 187.605,259.319 187.5,255.5C 187.05,245.719 187.716,236.052 189.5,226.5C 191.062,220.808 193.395,215.475 196.5,210.5C 197.167,210.5 197.5,210.167 197.5,209.5C 200.833,206.5 204.167,203.5 207.5,200.5 Z"/></g>
<g><path style="opacity:1" fill="#e0e7ee" d="M 422.5,230.5 C 424.5,231.167 426.5,231.833 428.5,232.5C 428.5,233.5 428.5,234.5 428.5,235.5C 429.5,235.5 430.5,235.5 431.5,235.5C 431.5,236.5 431.5,237.5 431.5,238.5C 432.5,238.5 433.5,238.5 434.5,238.5C 434.5,239.5 434.5,240.5 434.5,241.5C 433.609,240.89 432.609,240.557 431.5,240.5C 429.1,237.097 426.1,234.43 422.5,232.5C 422.5,231.833 422.5,231.167 422.5,230.5 Z"/></g>
<g><path style="opacity:1" fill="#c5d2df" d="M 101.5,228.5 C 100.772,230.735 99.4388,232.568 97.5,234C 94.3018,236.02 90.9685,237.854 87.5,239.5C 87.5569,238.391 87.8902,237.391 88.5,236.5C 91.0668,235.327 93.7334,234.161 96.5,233C 98.0832,231.242 99.7499,229.742 101.5,228.5 Z"/></g>
<g><path style="opacity:1" fill="#88a4bf" d="M 422.5,232.5 C 426.1,234.43 429.1,237.097 431.5,240.5C 430.833,240.5 430.167,240.5 429.5,240.5C 427.833,238.167 425.833,236.167 423.5,234.5C 423.167,233.833 422.833,233.167 422.5,232.5 Z"/></g>
<g><path style="opacity:1" fill="#8ca6c1" d="M 65.5,229.5 C 64.1667,231.167 62.8333,232.833 61.5,234.5C 59.0268,236.061 57.0268,238.061 55.5,240.5C 54.391,240.557 53.391,240.89 52.5,241.5C 52.7822,240.222 53.4489,239.222 54.5,238.5C 57.8706,235.129 61.5373,232.129 65.5,229.5 Z"/></g>
<g><path style="opacity:1" fill="#7b99b8" d="M 177.5,224.5 C 176.735,227.096 176.401,229.763 176.5,232.5C 175.53,241.082 175.197,249.749 175.5,258.5C 174.527,256.052 174.194,253.385 174.5,250.5C 174.5,245.5 174.5,240.5 174.5,235.5C 174.5,233.833 174.5,232.167 174.5,230.5C 175.015,228.249 176.015,226.249 177.5,224.5 Z"/></g>
<g><path style="opacity:1" fill="#c6d3e1" d="M 54.5,238.5 C 53.4489,239.222 52.7822,240.222 52.5,241.5C 51.791,242.404 50.791,242.737 49.5,242.5C 50.8062,241.533 51.4729,240.199 51.5,238.5C 52.5,238.5 53.5,238.5 54.5,238.5 Z"/></g>
<g><path style="opacity:1" fill="#1b5084" d="M 311.5,234.5 C 312.816,237.087 313.483,240.087 313.5,243.5C 312.926,249.996 311.926,256.329 310.5,262.5C 310.5,260.167 310.5,257.833 310.5,255.5C 311.386,248.543 311.72,241.543 311.5,234.5 Z"/></g>
<g><path style="opacity:1" fill="#b0c2d5" d="M 154.5,232.5 C 154.5,239.833 154.5,247.167 154.5,254.5C 153.182,251.742 152.515,248.576 152.5,245C 152.667,241.833 152.833,238.667 153,235.5C 153.232,234.263 153.732,233.263 154.5,232.5 Z"/></g>
<g><path style="opacity:1" fill="#426b98" d="M 158.5,219.5 C 158.833,219.5 159.167,219.5 159.5,219.5C 159.665,222.518 159.498,225.518 159,228.5C 158.333,229.167 157.667,229.833 157,230.5C 156.009,243.62 156.509,256.62 158.5,269.5C 157.59,267.981 156.757,266.315 156,264.5C 155.819,261.305 155.319,258.305 154.5,255.5C 154.5,255.167 154.5,254.833 154.5,254.5C 154.5,247.167 154.5,239.833 154.5,232.5C 154.5,231.167 154.5,229.833 154.5,228.5C 154.5,227.833 154.833,227.5 155.5,227.5C 156.249,224.799 157.249,222.132 158.5,219.5 Z"/></g>
<g><path style="opacity:1" fill="#b4c9e7" d="M 189.5,226.5 C 187.716,236.052 187.05,245.719 187.5,255.5C 186.511,250.025 186.178,244.358 186.5,238.5C 186.5,235.167 186.5,231.833 186.5,228.5C 187.5,227.833 188.5,227.167 189.5,226.5 Z"/></g>
<g><path style="opacity:1" fill="#a3bde2" d="M 293.5,220.5 C 294.857,221.59 295.857,222.924 296.5,224.5C 298.606,234.904 298.939,245.238 297.5,255.5C 297.5,249.5 297.5,243.5 297.5,237.5C 295.923,231.961 294.59,226.295 293.5,220.5 Z"/></g>
<g><path style="opacity:1" fill="#dee6ed" d="M 154.5,228.5 C 154.5,229.833 154.5,231.167 154.5,232.5C 153.732,233.263 153.232,234.263 153,235.5C 152.833,238.667 152.667,241.833 152.5,245C 152.515,248.576 153.182,251.742 154.5,254.5C 154.5,254.833 154.5,255.167 154.5,255.5C 154.5,256.5 154.5,257.5 154.5,258.5C 153.069,258.119 152.236,257.119 152,255.5C 151.333,248.167 151.333,240.833 152,233.5C 152.099,231.347 152.933,229.681 154.5,228.5 Z"/></g>
<g><path style="opacity:1" fill="#3f6b98" d="M 174.5,235.5 C 174.5,240.5 174.5,245.5 174.5,250.5C 173.833,250.5 173.167,250.5 172.5,250.5C 172.334,246.154 172.501,241.821 173,237.5C 173.278,236.584 173.778,235.918 174.5,235.5 Z"/></g>
<g><path style="opacity:1" fill="#6488ac" d="M 328.5,222.5 C 329.167,223.5 329.833,224.5 330.5,225.5C 330.5,227.833 330.5,230.167 330.5,232.5C 330.826,241.349 330.493,250.016 329.5,258.5C 329.749,246.469 329.416,234.469 328.5,222.5 Z"/></g>
<g><path style="opacity:1" fill="#e8eef3" d="M 331.5,232.5 C 332.79,233.058 333.623,234.058 334,235.5C 334.667,241.167 334.667,246.833 334,252.5C 333.8,254.32 332.966,255.653 331.5,256.5C 331.5,248.5 331.5,240.5 331.5,232.5 Z"/></g>
<g><path style="opacity:1" fill="#9eb4cb" d="M 431.5,240.5 C 432.609,240.557 433.609,240.89 434.5,241.5C 434.5,242.167 434.833,242.5 435.5,242.5C 435.598,244.553 434.931,246.22 433.5,247.5C 433.834,244.812 433.168,242.479 431.5,240.5 Z"/></g>
<g><path style="opacity:1" fill="#88a3bf" d="M 88.5,236.5 C 87.8902,237.391 87.5569,238.391 87.5,239.5C 86.8333,239.5 86.5,239.833 86.5,240.5C 83.4787,241.773 82.4787,243.773 83.5,246.5C 81.31,245.252 80.9766,243.586 82.5,241.5C 84.5441,239.781 86.5441,238.114 88.5,236.5 Z"/></g>
<g><path style="opacity:1" fill="#c6d3e0" d="M 392.5,234.5 C 394.955,235.786 396.955,237.62 398.5,240C 399.901,240.41 401.234,240.91 402.5,241.5C 402.5,242.167 402.833,242.5 403.5,242.5C 403.031,245.643 401.364,247.977 398.5,249.5C 398.167,249.5 397.833,249.5 397.5,249.5C 397.5,248.5 397.5,247.5 397.5,246.5C 398.5,246.5 399.5,246.5 400.5,246.5C 398.595,243.696 396.929,240.696 395.5,237.5C 394.5,237.5 393.5,237.5 392.5,237.5C 392.5,236.5 392.5,235.5 392.5,234.5 Z"/></g>
<g><path style="opacity:1" fill="#376392" d="M 429.5,240.5 C 430.167,240.5 430.833,240.5 431.5,240.5C 433.168,242.479 433.834,244.812 433.5,247.5C 433.167,247.5 432.833,247.5 432.5,247.5C 431.391,247.557 430.391,247.89 429.5,248.5C 429.821,246.952 430.821,246.285 432.5,246.5C 432.5,245.5 432.5,244.5 432.5,243.5C 431.5,243.5 430.5,243.5 429.5,243.5C 429.5,242.5 429.5,241.5 429.5,240.5 Z"/></g>
<g><path style="opacity:1" fill="#c5d2e0" d="M 86.5,240.5 C 86.0805,242.094 85.4138,243.594 84.5,245C 85.741,246.731 86.741,248.564 87.5,250.5C 86.8333,250.167 86.1667,249.833 85.5,249.5C 84.8333,248.5 84.1667,247.5 83.5,246.5C 82.4787,243.773 83.4787,241.773 86.5,240.5 Z"/></g>
<g><path style="opacity:1" fill="#1e5085" d="M 53.5,244.5 C 59.2568,249.284 64.5901,254.618 69.5,260.5C 68.8333,260.5 68.1667,260.5 67.5,260.5C 64.4372,256.434 60.7706,253.101 56.5,250.5C 55.5,248.5 54.5,246.5 53.5,244.5 Z"/></g>
<g><path style="opacity:1" fill="#1f5286" d="M 326.5,218.5 C 326.833,218.5 327.167,218.5 327.5,218.5C 327.232,220.099 327.566,221.432 328.5,222.5C 329.416,234.469 329.749,246.469 329.5,258.5C 329.167,258.5 328.833,258.5 328.5,258.5C 328.592,245.118 327.925,231.785 326.5,218.5 Z"/></g>
<g><path style="opacity:1" fill="#4f77a0" d="M 55.5,240.5 C 54.3995,241.605 53.7329,242.938 53.5,244.5C 54.5,246.5 55.5,248.5 56.5,250.5C 54.4268,248.42 52.0934,246.754 49.5,245.5C 49.5,244.5 49.5,243.5 49.5,242.5C 50.791,242.737 51.791,242.404 52.5,241.5C 53.391,240.89 54.391,240.557 55.5,240.5 Z"/></g>
<g><path style="opacity:1" fill="#4a739e" d="M 82.5,241.5 C 80.9766,243.586 81.31,245.252 83.5,246.5C 84.1667,247.5 84.8333,248.5 85.5,249.5C 83.8828,248.962 82.2161,248.629 80.5,248.5C 79.9898,245.612 80.6565,243.279 82.5,241.5 Z"/></g>
<g><path style="opacity:1" fill="#698baf" d="M 432.5,247.5 C 430.909,249.633 428.909,251.299 426.5,252.5C 426.5,251.833 426.5,251.167 426.5,250.5C 427.71,250.068 428.71,249.401 429.5,248.5C 430.391,247.89 431.391,247.557 432.5,247.5 Z"/></g>
<g><path style="opacity:1" fill="#5a80a6" d="M 403.5,242.5 C 404.598,243.601 404.765,244.934 404,246.5C 401.069,250.034 397.569,252.701 393.5,254.5C 394.861,252.473 396.527,250.806 398.5,249.5C 401.364,247.977 403.031,245.643 403.5,242.5 Z"/></g>
<g><path style="opacity:1" fill="#d5dfe8" d="M 49.5,245.5 C 52.0934,246.754 54.4268,248.42 56.5,250.5C 58.5,252.833 60.5,255.167 62.5,257.5C 58.2187,257.563 55.5521,255.563 54.5,251.5C 51.0432,251.04 49.3765,249.04 49.5,245.5 Z"/></g>
<g><path style="opacity:1" fill="#537aa2" d="M 85.5,249.5 C 86.1667,249.833 86.8333,250.167 87.5,250.5C 88.2625,251.268 89.2625,251.768 90.5,252C 91.2524,252.671 91.5858,253.504 91.5,254.5C 88.6385,253.753 86.6385,252.086 85.5,249.5 Z"/></g>
<g><path style="opacity:1" fill="#9eb4ca" d="M 87.5,250.5 C 88.8734,250.343 90.2068,250.51 91.5,251C 93.4186,254.079 95.7519,256.579 98.5,258.5C 97.8333,258.167 97.1667,257.833 96.5,257.5C 94.5887,256.925 92.922,255.925 91.5,254.5C 91.5858,253.504 91.2524,252.671 90.5,252C 89.2625,251.768 88.2625,251.268 87.5,250.5 Z"/></g>
<g><path style="opacity:1" fill="#d3e0f1" d="M 296.5,224.5 C 297.315,225.429 298.148,226.429 299,227.5C 299.667,238.5 299.667,249.5 299,260.5C 297.133,262.808 296.133,265.475 296,268.5C 295.292,269.381 294.458,270.047 293.5,270.5C 295.331,265.695 296.665,260.695 297.5,255.5C 298.939,245.238 298.606,234.904 296.5,224.5 Z"/></g>
<g><path style="opacity:1" fill="#9bb2c9" d="M 397.5,249.5 C 397.833,249.5 398.167,249.5 398.5,249.5C 396.527,250.806 394.861,252.473 393.5,254.5C 392.341,256.25 390.674,257.25 388.5,257.5C 387.833,257.833 387.167,258.167 386.5,258.5C 386.414,257.504 386.748,256.671 387.5,256C 390.998,253.987 394.331,251.82 397.5,249.5 Z"/></g>
<g><path style="opacity:1" fill="#dae2eb" d="M 435.5,242.5 C 436.622,244.288 436.789,246.288 436,248.5C 432.291,250.698 429.125,253.531 426.5,257C 425.207,257.49 423.873,257.657 422.5,257.5C 422.5,257.167 422.5,256.833 422.5,256.5C 423.833,255.167 425.167,253.833 426.5,252.5C 428.909,251.299 430.909,249.633 432.5,247.5C 432.833,247.5 433.167,247.5 433.5,247.5C 434.931,246.22 435.598,244.553 435.5,242.5 Z"/></g>
<g><path style="opacity:1" fill="#2f5c8e" d="M 426.5,250.5 C 426.5,251.167 426.5,251.833 426.5,252.5C 425.167,253.833 423.833,255.167 422.5,256.5C 419.865,257.473 417.865,259.14 416.5,261.5C 415.833,261.5 415.167,261.5 414.5,261.5C 416.459,258.452 418.792,255.619 421.5,253C 422.9,251.562 424.567,250.729 426.5,250.5 Z"/></g>
<g><path style="opacity:1" fill="#7192b3" d="M 56.5,250.5 C 60.7706,253.101 64.4372,256.434 67.5,260.5C 65.5887,259.925 63.922,258.925 62.5,257.5C 60.5,255.167 58.5,252.833 56.5,250.5 Z"/></g>
<g><path style="opacity:1" fill="#819dbb" d="M 422.5,256.5 C 422.5,256.833 422.5,257.167 422.5,257.5C 421.167,258.167 420.167,259.167 419.5,260.5C 418.391,260.557 417.391,260.89 416.5,261.5C 417.865,259.14 419.865,257.473 422.5,256.5 Z"/></g>
<g><path style="opacity:1" fill="#1d4f84" d="M 402.5,241.5 C 403.5,241.5 404.5,241.5 405.5,241.5C 405.662,243.527 405.495,245.527 405,247.5C 399.639,253.24 393.472,257.573 386.5,260.5C 387.551,259.778 388.218,258.778 388.5,257.5C 390.674,257.25 392.341,256.25 393.5,254.5C 397.569,252.701 401.069,250.034 404,246.5C 404.765,244.934 404.598,243.601 403.5,242.5C 402.833,242.5 402.5,242.167 402.5,241.5 Z"/></g>
<g><path style="opacity:1" fill="#c5d2e0" d="M 176.5,258.5 C 178.862,260.919 179.862,263.919 179.5,267.5C 179.167,267.5 178.833,267.5 178.5,267.5C 178.127,264.426 177.461,261.426 176.5,258.5 Z"/></g>
<g><path style="opacity:1" fill="#7292b3" d="M 67.5,260.5 C 68.1667,260.5 68.8333,260.5 69.5,260.5C 70.9325,263.097 73.0991,264.763 76,265.5C 76.4643,266.094 76.631,266.761 76.5,267.5C 75.1805,266.058 73.5138,265.392 71.5,265.5C 70.1667,263.833 68.8333,262.167 67.5,260.5 Z"/></g>
<g><path style="opacity:1" fill="#436d99" d="M 96.5,257.5 C 97.1667,257.833 97.8333,258.167 98.5,258.5C 101.167,260.833 103.833,263.167 106.5,265.5C 104.263,264.551 101.929,263.884 99.5,263.5C 98.7945,261.328 97.7945,259.328 96.5,257.5 Z"/></g>
<g><path style="opacity:1" fill="#8ca7c1" d="M 308.5,255.5 C 308.833,255.5 309.167,255.5 309.5,255.5C 309.889,258.553 309.223,261.22 307.5,263.5C 307.833,260.833 308.167,258.167 308.5,255.5 Z"/></g>
<g><path style="opacity:1" fill="#ccd7e3" d="M 419.5,260.5 C 416.249,266.04 411.583,269.707 405.5,271.5C 406.833,269.833 408.167,268.167 409.5,266.5C 412.671,265.994 415.004,264.328 416.5,261.5C 417.391,260.89 418.391,260.557 419.5,260.5 Z"/></g>
<g><path style="opacity:1" fill="#6588ac" d="M 175.5,258.5 C 175.833,258.5 176.167,258.5 176.5,258.5C 177.461,261.426 178.127,264.426 178.5,267.5C 175.925,265.155 174.925,262.155 175.5,258.5 Z"/></g>
<g><path style="opacity:1" fill="#46709b" d="M 328.5,258.5 C 328.833,258.5 329.167,258.5 329.5,258.5C 329.692,262.902 328.692,266.902 326.5,270.5C 326.079,266.258 326.746,262.258 328.5,258.5 Z"/></g>
<g><path style="opacity:1" fill="#d0dbe6" d="M 381.5,261.5 C 378.663,263.645 375.663,265.645 372.5,267.5C 372.281,266.325 372.614,265.325 373.5,264.5C 375.991,262.942 378.657,261.942 381.5,261.5 Z"/></g>
<g><path style="opacity:1" fill="#7f9cba" d="M 414.5,261.5 C 415.167,261.5 415.833,261.5 416.5,261.5C 415.004,264.328 412.671,265.994 409.5,266.5C 411.222,265 412.888,263.333 414.5,261.5 Z"/></g>
<g><path style="opacity:1" fill="#cad6e2" d="M 98.5,258.5 C 103.469,260.615 108.469,262.949 113.5,265.5C 114.561,268.834 116.895,270.334 120.5,270C 121.337,271.011 121.67,272.178 121.5,273.5C 117.833,271.5 114.167,269.5 110.5,267.5C 109.395,266.4 108.062,265.733 106.5,265.5C 103.833,263.167 101.167,260.833 98.5,258.5 Z"/></g>
<g><path style="opacity:1" fill="#215287" d="M 172.5,250.5 C 173.167,250.5 173.833,250.5 174.5,250.5C 174.194,253.385 174.527,256.052 175.5,258.5C 174.925,262.155 175.925,265.155 178.5,267.5C 178.62,270.578 179.62,273.245 181.5,275.5C 182.167,277.167 182.833,278.833 183.5,280.5C 182.279,279.972 181.113,279.305 180,278.5C 175.529,269.747 173.029,260.414 172.5,250.5 Z"/></g>
<g><path style="opacity:1" fill="#b1c3d5" d="M 330.5,232.5 C 330.833,232.5 331.167,232.5 331.5,232.5C 331.5,240.5 331.5,248.5 331.5,256.5C 331.57,263.463 329.737,269.796 326,275.5C 325.503,277.81 325.337,280.143 325.5,282.5C 324.5,282.5 323.5,282.5 322.5,282.5C 322.557,281.391 322.89,280.391 323.5,279.5C 324.353,276.41 325.353,273.41 326.5,270.5C 328.692,266.902 329.692,262.902 329.5,258.5C 330.493,250.016 330.826,241.349 330.5,232.5 Z"/></g>
<g><path style="opacity:1" fill="#c1cfdd" d="M 71.5,265.5 C 73.5138,265.392 75.1805,266.058 76.5,267.5C 76.8333,268.167 77.1667,268.833 77.5,269.5C 74.9501,268.943 72.9501,267.61 71.5,265.5 Z"/></g>
<g><path style="opacity:1" fill="#c2d0de" d="M 154.5,255.5 C 155.319,258.305 155.819,261.305 156,264.5C 156.757,266.315 157.59,267.981 158.5,269.5C 158.5,269.833 158.5,270.167 158.5,270.5C 158.025,273.082 158.692,275.082 160.5,276.5C 161.301,278.042 161.634,279.708 161.5,281.5C 163.42,284.339 165.087,287.339 166.5,290.5C 164.188,289.522 162.522,287.855 161.5,285.5C 159.314,280.657 157.647,275.657 156.5,270.5C 155.914,270.291 155.414,269.957 155,269.5C 154.501,265.848 154.335,262.182 154.5,258.5C 154.5,257.5 154.5,256.5 154.5,255.5 Z"/></g>
<g><path style="opacity:1" fill="#7695b5" d="M 388.5,257.5 C 388.218,258.778 387.551,259.778 386.5,260.5C 377.749,266.589 368.749,272.255 359.5,277.5C 358.395,278.6 357.062,279.267 355.5,279.5C 358.467,277.511 361.134,275.177 363.5,272.5C 366.821,271.271 369.821,269.604 372.5,267.5C 375.663,265.645 378.663,263.645 381.5,261.5C 383.411,260.925 385.078,259.925 386.5,258.5C 387.167,258.167 387.833,257.833 388.5,257.5 Z"/></g>
<g><path style="opacity:1" fill="#6e8fb1" d="M 409.5,266.5 C 408.167,268.167 406.833,269.833 405.5,271.5C 402.869,273.112 400.202,274.779 397.5,276.5C 397.5,276.167 397.5,275.833 397.5,275.5C 397.414,274.504 397.748,273.671 398.5,273C 402.516,271.288 406.183,269.121 409.5,266.5 Z"/></g>
<g><path style="opacity:1" fill="#7090b2" d="M 178.5,267.5 C 178.833,267.5 179.167,267.5 179.5,267.5C 180.639,270.004 181.306,272.67 181.5,275.5C 179.62,273.245 178.62,270.578 178.5,267.5 Z"/></g>
<g><path style="opacity:1" fill="#e1e9f5" d="M 186.5,238.5 C 186.178,244.358 186.511,250.025 187.5,255.5C 187.605,259.319 188.438,262.986 190,266.5C 190.498,268.544 191.665,269.878 193.5,270.5C 194.471,272.483 195.471,274.483 196.5,276.5C 196.5,276.833 196.5,277.167 196.5,277.5C 194.952,277.179 194.285,276.179 194.5,274.5C 193.5,274.5 192.5,274.5 191.5,274.5C 190.267,270.253 188.433,266.253 186,262.5C 185.551,256.329 185.051,250.162 184.5,244C 184.547,241.705 185.213,239.871 186.5,238.5 Z"/></g>
<g><path style="opacity:1" fill="#93acc5" d="M 307.5,264.5 C 307.66,266.199 307.494,267.866 307,269.5C 305.428,272.107 303.594,274.441 301.5,276.5C 303.104,272.25 305.104,268.25 307.5,264.5 Z"/></g>
<g><path style="opacity:1" fill="#6286aa" d="M 76.5,267.5 C 78.6968,268.845 81.0302,270.011 83.5,271C 86.8614,273.923 90.1948,276.756 93.5,279.5C 91.8333,278.833 90.1667,278.167 88.5,277.5C 88.1667,277.5 87.8333,277.5 87.5,277.5C 85.034,273.696 81.7007,271.029 77.5,269.5C 77.1667,268.833 76.8333,268.167 76.5,267.5 Z"/></g>
<g><path style="opacity:1" fill="#577ca4" d="M 110.5,267.5 C 114.167,269.5 117.833,271.5 121.5,273.5C 122.694,274.272 123.694,275.272 124.5,276.5C 122.446,276.635 120.779,275.968 119.5,274.5C 115.637,273.306 112.637,270.973 110.5,267.5 Z"/></g>
<g><path style="opacity:1" fill="#325f90" d="M 159.5,271.5 C 160.496,271.414 161.329,271.748 162,272.5C 162.363,275.544 162.863,278.544 163.5,281.5C 162.833,281.5 162.167,281.5 161.5,281.5C 161.634,279.708 161.301,278.042 160.5,276.5C 159.962,274.883 159.629,273.216 159.5,271.5 Z"/></g>
<g><path style="opacity:1" fill="#829fbc" d="M 158.5,270.5 C 159.167,270.5 159.5,270.833 159.5,271.5C 159.629,273.216 159.962,274.883 160.5,276.5C 158.692,275.082 158.025,273.082 158.5,270.5 Z"/></g>
<g><path style="opacity:1" fill="#4a729d" d="M 309.5,255.5 C 309.833,255.5 310.167,255.5 310.5,255.5C 310.5,257.833 310.5,260.167 310.5,262.5C 309.846,268.425 307.346,273.425 303,277.5C 302.924,281.711 301.091,284.711 297.5,286.5C 298.305,284.085 299.305,281.751 300.5,279.5C 301.11,278.609 301.443,277.609 301.5,276.5C 303.594,274.441 305.428,272.107 307,269.5C 307.494,267.866 307.66,266.199 307.5,264.5C 307.5,264.167 307.5,263.833 307.5,263.5C 309.223,261.22 309.889,258.553 309.5,255.5 Z"/></g>
<g><path style="opacity:1" fill="#3e6996" d="M 397.5,275.5 C 397.5,275.833 397.5,276.167 397.5,276.5C 395.833,277.167 394.167,277.833 392.5,278.5C 392.5,277.5 392.5,276.5 392.5,275.5C 394.167,275.5 395.833,275.5 397.5,275.5 Z"/></g>
<g><path style="opacity:1" fill="#d2dce7" d="M 77.5,269.5 C 81.7007,271.029 85.034,273.696 87.5,277.5C 86.1667,277.5 84.8333,277.5 83.5,277.5C 83.1921,273.991 81.1921,272.324 77.5,272.5C 77.5,271.5 77.5,270.5 77.5,269.5 Z"/></g>
<g><path style="opacity:1" fill="#a7bbcf" d="M 121.5,273.5 C 125.561,274.6 129.228,276.433 132.5,279C 133.252,279.671 133.586,280.504 133.5,281.5C 132.833,281.167 132.167,280.833 131.5,280.5C 129.167,279.167 126.833,277.833 124.5,276.5C 123.694,275.272 122.694,274.272 121.5,273.5 Z"/></g>
<g><path style="opacity:1" fill="#356292" d="M 119.5,274.5 C 120.779,275.968 122.446,276.635 124.5,276.5C 126.833,277.833 129.167,279.167 131.5,280.5C 127.532,279.567 123.532,278.567 119.5,277.5C 119.5,276.5 119.5,275.5 119.5,274.5 Z"/></g>
<g><path style="opacity:1" fill="#bdd0ea" d="M 297.5,255.5 C 296.665,260.695 295.331,265.695 293.5,270.5C 292.359,273.833 290.526,276.833 288,279.5C 282.365,285.369 276.198,290.369 269.5,294.5C 268.391,294.557 267.391,294.89 266.5,295.5C 273.351,290.838 279.851,285.504 286,279.5C 287.816,276.442 289.816,273.442 292,270.5C 293.718,266.005 295.051,261.338 296,256.5C 296.383,255.944 296.883,255.611 297.5,255.5 Z"/></g>
<g><path style="opacity:1" fill="#b8c8d8" d="M 88.5,277.5 C 90.1667,278.167 91.8333,278.833 93.5,279.5C 94.5274,281.194 95.8608,282.527 97.5,283.5C 94.493,282.486 91.493,281.486 88.5,280.5C 88.5,279.5 88.5,278.5 88.5,277.5 Z"/></g>
<g><path style="opacity:1" fill="#bccbdb" d="M 363.5,272.5 C 361.134,275.177 358.467,277.511 355.5,279.5C 353.596,279.738 352.262,280.738 351.5,282.5C 347.082,283.873 342.749,285.539 338.5,287.5C 338.5,286.5 338.5,285.5 338.5,284.5C 342.525,283.694 346.525,282.528 350.5,281C 352.746,279.743 354.079,277.91 354.5,275.5C 357.493,274.514 360.493,273.514 363.5,272.5 Z"/></g>
<g><path style="opacity:1" fill="#2b5a8c" d="M 359.5,277.5 C 359.5,278.5 359.5,279.5 359.5,280.5C 356.996,281.639 354.33,282.306 351.5,282.5C 352.262,280.738 353.596,279.738 355.5,279.5C 357.062,279.267 358.395,278.6 359.5,277.5 Z"/></g>
<g><path style="opacity:1" fill="#829fbc" d="M 181.5,275.5 C 185.693,279.023 188.693,283.356 190.5,288.5C 187.705,286.249 185.372,283.582 183.5,280.5C 182.833,278.833 182.167,277.167 181.5,275.5 Z"/></g>
<g><path style="opacity:1" fill="#698caf" d="M 389.5,281.5 C 387.861,282.473 386.527,283.806 385.5,285.5C 384.833,285.5 384.167,285.5 383.5,285.5C 383.5,285.167 383.5,284.833 383.5,284.5C 385.053,282.615 387.053,281.615 389.5,281.5 Z"/></g>
<g><path style="opacity:1" fill="#8ca6c1" d="M 133.5,281.5 C 137.084,282.915 140.751,284.082 144.5,285C 145.381,285.708 146.047,286.542 146.5,287.5C 145.167,287.167 143.833,286.833 142.5,286.5C 139.223,285.198 136.223,283.531 133.5,281.5 Z"/></g>
<g><path style="opacity:1" fill="#6b8daf" d="M 161.5,281.5 C 162.167,281.5 162.833,281.5 163.5,281.5C 164.325,283.81 165.658,285.81 167.5,287.5C 167.284,289.681 168.117,291.347 170,292.5C 170.495,294.473 170.662,296.473 170.5,298.5C 168.214,298.405 166.214,297.738 164.5,296.5C 166.167,296.5 167.833,296.5 169.5,296.5C 169.727,294.067 168.727,292.401 166.5,291.5C 166.5,291.167 166.5,290.833 166.5,290.5C 165.087,287.339 163.42,284.339 161.5,281.5 Z"/></g>
<g><path style="opacity:1" fill="#b8c8d9" d="M 405.5,271.5 C 403.539,274.942 400.539,277.109 396.5,278C 393.758,281.917 390.091,284.417 385.5,285.5C 386.527,283.806 387.861,282.473 389.5,281.5C 390.5,280.5 391.5,279.5 392.5,278.5C 394.167,277.833 395.833,277.167 397.5,276.5C 400.202,274.779 402.869,273.112 405.5,271.5 Z"/></g>
<g><path style="opacity:1" fill="#c5d2e0" d="M 97.5,283.5 C 100.622,284.982 103.622,286.649 106.5,288.5C 106.5,289.167 106.5,289.833 106.5,290.5C 103.684,288.667 100.684,287.334 97.5,286.5C 97.5,285.5 97.5,284.5 97.5,283.5 Z"/></g>
<g><path style="opacity:1" fill="#537aa2" d="M 93.5,279.5 C 98.1599,282.79 103.16,285.623 108.5,288C 109.381,288.708 110.047,289.542 110.5,290.5C 108.938,290.267 107.605,289.6 106.5,288.5C 103.622,286.649 100.622,284.982 97.5,283.5C 95.8608,282.527 94.5274,281.194 93.5,279.5 Z"/></g>
<g><path style="opacity:1" fill="#84a0bd" d="M 323.5,279.5 C 322.89,280.391 322.557,281.391 322.5,282.5C 321.889,285.721 320.722,288.721 319,291.5C 317.961,292.71 316.794,293.71 315.5,294.5C 315.5,293.167 315.5,291.833 315.5,290.5C 316.5,290.5 317.5,290.5 318.5,290.5C 318.704,288.315 319.37,286.315 320.5,284.5C 320.259,281.966 321.259,280.3 323.5,279.5 Z"/></g>
<g><path style="opacity:1" fill="#2a588b" d="M 383.5,284.5 C 383.5,284.833 383.5,285.167 383.5,285.5C 380.63,286.433 378.296,288.1 376.5,290.5C 375.167,290.5 373.833,290.5 372.5,290.5C 374.959,286.391 378.626,284.391 383.5,284.5 Z"/></g>
<g><path style="opacity:1" fill="#adc0d3" d="M 383.5,285.5 C 384.167,285.5 384.833,285.5 385.5,285.5C 383.284,288.444 380.284,290.111 376.5,290.5C 378.296,288.1 380.63,286.433 383.5,285.5 Z"/></g>
<g><path style="opacity:1" fill="#aec5e5" d="M 196.5,277.5 C 196.5,277.167 196.5,276.833 196.5,276.5C 197.5,276.5 198.5,276.5 199.5,276.5C 199.729,278.433 200.562,280.1 202,281.5C 206.172,286.524 211.005,290.524 216.5,293.5C 213.774,293.736 211.441,292.903 209.5,291C 204.936,286.605 200.602,282.105 196.5,277.5 Z"/></g>
<g><path style="opacity:1" fill="#c1cfde" d="M 147.5,287.5 C 150.721,288.505 154.054,289.339 157.5,290C 160.459,291.927 163.459,293.761 166.5,295.5C 167.167,295.333 167.833,295.167 168.5,295C 167.177,294.184 166.511,293.017 166.5,291.5C 168.727,292.401 169.727,294.067 169.5,296.5C 167.833,296.5 166.167,296.5 164.5,296.5C 164.167,296.5 163.833,296.5 163.5,296.5C 163.047,295.542 162.381,294.708 161.5,294C 157.536,292.738 153.536,291.404 149.5,290C 148.619,289.292 147.953,288.458 147.5,287.5 Z"/></g>
<g><path style="opacity:1" fill="#92abc4" d="M 300.5,279.5 C 299.305,281.751 298.305,284.085 297.5,286.5C 296.833,286.5 296.5,286.833 296.5,287.5C 295.167,288.5 293.833,289.5 292.5,290.5C 293.63,288.685 294.296,286.685 294.5,284.5C 295.5,284.5 296.5,284.5 297.5,284.5C 297.259,281.966 298.259,280.3 300.5,279.5 Z"/></g>
<g><path style="opacity:1" fill="#abbfd2" d="M 190.5,288.5 C 192.315,289.63 194.315,290.296 196.5,290.5C 196.5,291.5 196.5,292.5 196.5,293.5C 195.5,292.833 194.5,292.167 193.5,291.5C 191.856,291.19 190.856,290.19 190.5,288.5 Z"/></g>
<g><path style="opacity:1" fill="#e3e9f0" d="M 336.5,287.5 C 336.167,288.167 335.833,288.833 335.5,289.5C 334.504,289.414 333.671,289.748 333,290.5C 332.333,297.167 332.333,303.833 333,310.5C 335.737,311.61 338.571,311.777 341.5,311C 344.358,309.197 347.358,307.697 350.5,306.5C 350.586,307.496 350.252,308.329 349.5,309C 344.98,311.089 340.314,312.922 335.5,314.5C 334.228,314.43 333.062,314.097 332,313.5C 331.333,305.167 331.333,296.833 332,288.5C 333.356,287.62 334.856,287.286 336.5,287.5 Z"/></g>
<g><path style="opacity:1" fill="#537aa2" d="M 142.5,286.5 C 143.833,286.833 145.167,287.167 146.5,287.5C 146.833,287.5 147.167,287.5 147.5,287.5C 147.953,288.458 148.619,289.292 149.5,290C 153.536,291.404 157.536,292.738 161.5,294C 162.381,294.708 163.047,295.542 163.5,296.5C 161.685,295.37 159.685,294.704 157.5,294.5C 156.127,294.657 154.793,294.49 153.5,294C 149.655,291.637 145.989,289.137 142.5,286.5 Z"/></g>
<g><path style="opacity:1" fill="#8fa9c3" d="M 292.5,290.5 C 291.833,291.833 290.833,292.833 289.5,293.5C 289.5,291.5 290.5,290.5 292.5,290.5 Z"/></g>
<g><path style="opacity:1" fill="#8da7c1" d="M 106.5,288.5 C 107.605,289.6 108.938,290.267 110.5,290.5C 112.483,291.471 114.483,292.471 116.5,293.5C 117.672,295.539 119.338,296.872 121.5,297.5C 121.167,297.5 120.833,297.5 120.5,297.5C 115.627,295.545 110.96,293.211 106.5,290.5C 106.5,289.833 106.5,289.167 106.5,288.5 Z"/></g>
<g><path style="opacity:1" fill="#5e83a9" d="M 193.5,291.5 C 194.5,292.167 195.5,292.833 196.5,293.5C 197.5,294.833 198.5,296.167 199.5,297.5C 196.5,296.5 194.5,294.5 193.5,291.5 Z"/></g>
<g><path style="opacity:1" fill="#255488" d="M 320.5,284.5 C 319.37,286.315 318.704,288.315 318.5,290.5C 317.5,290.5 316.5,290.5 315.5,290.5C 315.5,291.833 315.5,293.167 315.5,294.5C 311.501,298.786 307.501,303.12 303.5,307.5C 303.019,303.651 304.686,301.651 308.5,301.5C 310.051,296.065 312.885,291.399 317,287.5C 317.483,286.552 317.649,285.552 317.5,284.5C 318.5,284.5 319.5,284.5 320.5,284.5 Z"/></g>
<g><path style="opacity:1" fill="#aec1d4" d="M 196.5,293.5 C 199.387,294.71 201.72,296.71 203.5,299.5C 201.938,299.267 200.605,298.6 199.5,297.5C 198.5,296.167 197.5,294.833 196.5,293.5 Z"/></g>
<g><path style="opacity:1" fill="#cfdae5" d="M 286.5,295.5 C 284.14,297.853 281.473,299.853 278.5,301.5C 279.502,299.989 280.169,298.322 280.5,296.5C 282.5,296.167 284.5,295.833 286.5,295.5 Z"/></g>
<g><path style="opacity:1" fill="#547ba4" d="M 351.5,282.5 C 346.221,284.938 341.221,287.938 336.5,291.5C 335.51,297.31 335.177,303.31 335.5,309.5C 334.778,309.082 334.278,308.416 334,307.5C 333.333,302.167 333.333,296.833 334,291.5C 334.717,290.956 335.217,290.289 335.5,289.5C 335.833,288.833 336.167,288.167 336.5,287.5C 337.167,287.5 337.833,287.5 338.5,287.5C 342.749,285.539 347.082,283.873 351.5,282.5 Z"/></g>
<g><path style="opacity:1" fill="#a9c1e3" d="M 216.5,293.5 C 220.316,294.401 223.983,295.901 227.5,298C 236.5,298.667 245.5,298.667 254.5,298C 257.171,296.097 260.171,295.264 263.5,295.5C 259.948,298.277 255.948,299.944 251.5,300.5C 242.448,300.807 233.448,300.307 224.5,299C 221.593,297.391 218.927,295.558 216.5,293.5 Z"/></g>
<g><path style="opacity:1" fill="#5379a2" d="M 116.5,293.5 C 120.633,295.156 124.633,296.989 128.5,299C 130.704,300.75 132.704,302.583 134.5,304.5C 129.89,302.527 125.557,300.194 121.5,297.5C 119.338,296.872 117.672,295.539 116.5,293.5 Z"/></g>
<g><path style="opacity:1" fill="#235588" d="M 167.5,287.5 C 169.353,289.375 171.187,291.375 173,293.5C 174.494,299.336 172.327,301.502 166.5,300C 163.248,298.434 160.248,296.601 157.5,294.5C 159.685,294.704 161.685,295.37 163.5,296.5C 163.833,296.5 164.167,296.5 164.5,296.5C 166.214,297.738 168.214,298.405 170.5,298.5C 170.662,296.473 170.495,294.473 170,292.5C 168.117,291.347 167.284,289.681 167.5,287.5 Z"/></g>
<g><path style="opacity:1" fill="#9bb2c9" d="M 203.5,299.5 C 206.671,300.436 209.338,302.103 211.5,304.5C 210.167,304.167 208.833,303.833 207.5,303.5C 205.833,302.5 204.5,301.167 203.5,299.5 Z"/></g>
<g><path style="opacity:1" fill="#d8e3f2" d="M 269.5,294.5 C 269.196,295.15 268.863,295.817 268.5,296.5C 265.564,297.115 262.897,298.282 260.5,300C 257.518,300.498 254.518,300.665 251.5,300.5C 255.948,299.944 259.948,298.277 263.5,295.5C 264.5,295.5 265.5,295.5 266.5,295.5C 267.391,294.89 268.391,294.557 269.5,294.5 Z"/></g>
<g><path style="opacity:1" fill="#d3dde7" d="M 120.5,297.5 C 120.833,297.5 121.167,297.5 121.5,297.5C 125.557,300.194 129.89,302.527 134.5,304.5C 134.833,304.5 135.167,304.5 135.5,304.5C 136.167,305.167 136.833,305.833 137.5,306.5C 138.306,307.728 139.306,308.728 140.5,309.5C 134.973,307.102 129.306,305.102 123.5,303.5C 123.5,302.5 123.5,301.5 123.5,300.5C 122.5,300.5 121.5,300.5 120.5,300.5C 120.5,299.5 120.5,298.5 120.5,297.5 Z"/></g>
<g><path style="opacity:1" fill="#4a739d" d="M 135.5,304.5 C 138.393,304.031 140.393,305.031 141.5,307.5C 140.167,307.167 138.833,306.833 137.5,306.5C 136.833,305.833 136.167,305.167 135.5,304.5 Z"/></g>
<g><path style="opacity:1" fill="#5c81a7" d="M 207.5,303.5 C 208.833,303.833 210.167,304.167 211.5,304.5C 211.833,304.5 212.167,304.5 212.5,304.5C 214.703,306.1 217.036,307.433 219.5,308.5C 218.833,308.5 218.167,308.5 217.5,308.5C 216.127,308.657 214.793,308.49 213.5,308C 210.907,307.114 208.907,305.614 207.5,303.5 Z"/></g>
<g><path style="opacity:1" fill="#d8e1ea" d="M 212.5,304.5 C 214.924,304.192 217.257,304.526 219.5,305.5C 221.616,306.972 223.949,308.139 226.5,309C 236.828,309.5 247.161,309.666 257.5,309.5C 247.681,310.494 237.681,310.827 227.5,310.5C 225.079,310.122 222.746,309.455 220.5,308.5C 220.167,308.5 219.833,308.5 219.5,308.5C 217.036,307.433 214.703,306.1 212.5,304.5 Z"/></g>
<g><path style="opacity:1" fill="#b8c8d9" d="M 277.5,301.5 C 276.415,303.587 274.749,304.92 272.5,305.5C 270.302,305.12 268.635,305.787 267.5,307.5C 267.5,307.833 267.5,308.167 267.5,308.5C 266.167,308.5 264.833,308.5 263.5,308.5C 264.348,306.907 265.681,305.74 267.5,305C 271.18,304.652 274.514,303.485 277.5,301.5 Z"/></g>
<g><path style="opacity:1" fill="#7192b3" d="M 272.5,305.5 C 271.365,307.213 269.698,307.88 267.5,307.5C 268.635,305.787 270.302,305.12 272.5,305.5 Z"/></g>
<g><path style="opacity:1" fill="#446d9a" d="M 296.5,287.5 C 296.631,288.239 296.464,288.906 296,289.5C 291.179,294.135 286.345,298.635 281.5,303C 277.194,305.932 272.528,307.765 267.5,308.5C 267.5,308.167 267.5,307.833 267.5,307.5C 269.698,307.88 271.365,307.213 272.5,305.5C 274.749,304.92 276.415,303.587 277.5,301.5C 277.833,301.5 278.167,301.5 278.5,301.5C 281.473,299.853 284.14,297.853 286.5,295.5C 287.222,294.449 288.222,293.782 289.5,293.5C 290.833,292.833 291.833,291.833 292.5,290.5C 293.833,289.5 295.167,288.5 296.5,287.5 Z"/></g>
<g><path style="opacity:1" fill="#9eb4cb" d="M 335.5,289.5 C 335.217,290.289 334.717,290.956 334,291.5C 333.333,296.833 333.333,302.167 334,307.5C 334.278,308.416 334.778,309.082 335.5,309.5C 336.946,310.613 338.613,310.78 340.5,310C 349.399,305.437 358.065,300.603 366.5,295.5C 368.114,293.925 370.114,293.259 372.5,293.5C 372.5,292.5 372.5,291.5 372.5,290.5C 373.833,290.5 375.167,290.5 376.5,290.5C 375.71,291.794 374.71,292.961 373.5,294C 365.727,298.081 358.06,302.248 350.5,306.5C 347.358,307.697 344.358,309.197 341.5,311C 338.571,311.777 335.737,311.61 333,310.5C 332.333,303.833 332.333,297.167 333,290.5C 333.671,289.748 334.504,289.414 335.5,289.5 Z"/></g>
<g><path style="opacity:1" fill="#325f90" d="M 372.5,290.5 C 372.5,291.5 372.5,292.5 372.5,293.5C 370.114,293.259 368.114,293.925 366.5,295.5C 366.5,294.5 366.5,293.5 366.5,292.5C 368.718,292.386 370.718,291.72 372.5,290.5 Z"/></g>
<g><path style="opacity:1" fill="#93acc5" d="M 137.5,306.5 C 138.833,306.833 140.167,307.167 141.5,307.5C 141.833,307.5 142.167,307.5 142.5,307.5C 144.249,309.256 146.249,310.589 148.5,311.5C 145.67,311.306 143.004,310.639 140.5,309.5C 139.306,308.728 138.306,307.728 137.5,306.5 Z"/></g>
<g><path style="opacity:1" fill="#346191" d="M 142.5,307.5 C 145.748,307.416 148.748,308.249 151.5,310C 152.252,310.671 152.586,311.504 152.5,312.5C 151.167,312.167 149.833,311.833 148.5,311.5C 146.249,310.589 144.249,309.256 142.5,307.5 Z"/></g>
<g><path style="opacity:1" fill="#688bae" d="M 220.5,308.5 C 222.746,309.455 225.079,310.122 227.5,310.5C 227.5,310.833 227.5,311.167 227.5,311.5C 224.423,311.821 222.09,310.821 220.5,308.5 Z"/></g>
<g><path style="opacity:1" fill="#3f6b98" d="M 336.5,291.5 C 336.171,297.537 336.504,303.537 337.5,309.5C 339.968,308.197 342.301,306.697 344.5,305C 350.986,303.508 356.653,300.508 361.5,296C 363.134,295.506 364.801,295.34 366.5,295.5C 358.065,300.603 349.399,305.437 340.5,310C 338.613,310.78 336.946,310.613 335.5,309.5C 335.177,303.31 335.51,297.31 336.5,291.5 Z"/></g>
<g><path style="opacity:1" fill="#a1b6cc" d="M 263.5,308.5 C 262.216,310.614 260.216,311.614 257.5,311.5C 247.488,312.687 237.488,312.687 227.5,311.5C 227.5,311.167 227.5,310.833 227.5,310.5C 237.681,310.827 247.681,310.494 257.5,309.5C 259.5,309.167 261.5,308.833 263.5,308.5 Z"/></g>
<g><path style="opacity:1" fill="#537aa2" d="M 152.5,312.5 C 156.564,313.329 160.564,314.329 164.5,315.5C 165.672,317.539 167.338,318.872 169.5,319.5C 166.67,319.306 164.004,318.639 161.5,317.5C 158.661,315.58 155.661,313.913 152.5,312.5 Z"/></g>
<g><path style="opacity:1" fill="#95adc6" d="M 315.5,294.5 C 312.746,300.775 308.58,306.109 303,310.5C 302.506,312.134 302.34,313.801 302.5,315.5C 309.354,317.462 316.354,318.629 323.5,319C 324.056,319.383 324.389,319.883 324.5,320.5C 324.666,326.842 324.5,333.175 324,339.5C 319.934,340.464 315.767,340.797 311.5,340.5C 309.5,340.5 307.5,340.5 305.5,340.5C 303.924,339.857 302.59,338.857 301.5,337.5C 305.905,338.687 310.405,339.354 315,339.5C 317.361,339.496 319.527,339.163 321.5,338.5C 322.816,335.913 323.483,332.913 323.5,329.5C 323.483,326.087 322.816,323.087 321.5,320.5C 321.167,320.5 320.833,320.5 320.5,320.5C 315.445,319.991 310.445,318.991 305.5,317.5C 302.383,318.073 300.383,316.906 299.5,314C 300.205,311.458 301.539,309.292 303.5,307.5C 307.501,303.12 311.501,298.786 315.5,294.5 Z"/></g>
<g><path style="opacity:1" fill="#416c98" d="M 217.5,308.5 C 218.167,308.5 218.833,308.5 219.5,308.5C 219.833,308.5 220.167,308.5 220.5,308.5C 222.09,310.821 224.423,311.821 227.5,311.5C 237.488,312.687 247.488,312.687 257.5,311.5C 255.123,312.887 252.457,313.721 249.5,314C 239.951,315.008 230.618,314.341 221.5,312C 219.973,310.968 218.64,309.801 217.5,308.5 Z"/></g>
<g><path style="opacity:1" fill="#abbfd2" d="M 148.5,311.5 C 149.833,311.833 151.167,312.167 152.5,312.5C 155.661,313.913 158.661,315.58 161.5,317.5C 161.167,317.5 160.833,317.5 160.5,317.5C 157.117,316.067 153.617,314.733 150,313.5C 148.97,313.164 148.47,312.497 148.5,311.5 Z"/></g>
<g><path style="opacity:1" fill="#29588b" d="M 164.5,315.5 C 168.475,317.564 172.808,318.897 177.5,319.5C 177.863,320.183 178.196,320.85 178.5,321.5C 178.167,321.5 177.833,321.5 177.5,321.5C 174.996,320.361 172.33,319.694 169.5,319.5C 167.338,318.872 165.672,317.539 164.5,315.5 Z"/></g>
<g><path style="opacity:1" fill="#255689" d="M 303.5,307.5 C 301.539,309.292 300.205,311.458 299.5,314C 300.383,316.906 302.383,318.073 305.5,317.5C 306.11,318.391 306.443,319.391 306.5,320.5C 303.634,319.241 300.634,318.241 297.5,317.5C 296.065,311.915 298.065,308.582 303.5,307.5 Z"/></g>
<g><path style="opacity:1" fill="#d0dbe6" d="M 160.5,317.5 C 160.833,317.5 161.167,317.5 161.5,317.5C 164.004,318.639 166.67,319.306 169.5,319.5C 169.5,319.833 169.5,320.167 169.5,320.5C 166.5,320.5 163.5,320.5 160.5,320.5C 160.5,319.5 160.5,318.5 160.5,317.5 Z"/></g>
<g><path style="opacity:1" fill="#84a0bd" d="M 169.5,320.5 C 169.5,320.167 169.5,319.833 169.5,319.5C 172.33,319.694 174.996,320.361 177.5,321.5C 178.5,322.167 179.5,322.833 180.5,323.5C 177.121,323.485 174.121,322.485 171.5,320.5C 170.833,320.5 170.167,320.5 169.5,320.5 Z"/></g>
<g><path style="opacity:1" fill="#45709b" d="M 305.5,317.5 C 310.445,318.991 315.445,319.991 320.5,320.5C 315.833,320.5 311.167,320.5 306.5,320.5C 306.443,319.391 306.11,318.391 305.5,317.5 Z"/></g>
<g><path style="opacity:1" fill="#567da4" d="M 177.5,321.5 C 177.833,321.5 178.167,321.5 178.5,321.5C 183.312,323.404 188.312,324.404 193.5,324.5C 195.072,325.687 196.739,326.687 198.5,327.5C 195.763,327.599 193.096,327.265 190.5,326.5C 187.183,325.503 183.85,324.503 180.5,323.5C 179.5,322.833 178.5,322.167 177.5,321.5 Z"/></g>
<g><path style="opacity:1" fill="#436f9a" d="M 321.5,320.5 C 322.816,323.087 323.483,326.087 323.5,329.5C 323.483,332.913 322.816,335.913 321.5,338.5C 321.5,332.5 321.5,326.5 321.5,320.5 Z"/></g>
<g><path style="opacity:1" fill="#dbe3eb" d="M 171.5,320.5 C 174.121,322.485 177.121,323.485 180.5,323.5C 183.85,324.503 187.183,325.503 190.5,326.5C 192.588,328.02 194.922,329.02 197.5,329.5C 194.482,329.665 191.482,329.498 188.5,329C 187.833,328.333 187.167,327.667 186.5,327C 183.5,326.667 180.5,326.333 177.5,326C 175.831,324.331 173.831,323.498 171.5,323.5C 171.5,322.5 171.5,321.5 171.5,320.5 Z"/></g>
<g><path style="opacity:1" fill="#1e5085" d="M 193.5,324.5 C 200.028,326.04 206.695,326.874 213.5,327C 214.308,327.308 214.975,327.808 215.5,328.5C 230.5,329.833 245.5,329.833 260.5,328.5C 261.025,327.808 261.692,327.308 262.5,327C 269.138,325.838 275.805,325.005 282.5,324.5C 282.5,325.5 282.5,326.5 282.5,327.5C 281.183,327.179 279.849,326.846 278.5,326.5C 271.261,327.111 264.261,328.445 257.5,330.5C 243.833,330.5 230.167,330.5 216.5,330.5C 215.5,330.5 214.5,330.5 213.5,330.5C 211.898,328.926 209.898,328.259 207.5,328.5C 204.391,328.736 201.391,328.403 198.5,327.5C 196.739,326.687 195.072,325.687 193.5,324.5 Z"/></g>
<g><path style="opacity:1" fill="#8ea8c2" d="M 282.5,327.5 C 282.833,328.167 283.167,328.833 283.5,329.5C 279.888,328.489 276.221,328.322 272.5,329C 265.584,330.93 258.584,332.43 251.5,333.5C 244.825,333.666 238.158,333.5 231.5,333C 229.292,332.809 227.292,332.309 225.5,331.5C 230.989,331.921 236.489,332.254 242,332.5C 247.411,332.621 252.577,331.954 257.5,330.5C 264.261,328.445 271.261,327.111 278.5,326.5C 279.849,326.846 281.183,327.179 282.5,327.5 Z"/></g>
<g><path style="opacity:1" fill="#325f90" d="M 282.5,327.5 C 283.873,327.343 285.207,327.51 286.5,328C 289.792,331.311 293.792,332.978 298.5,333C 299.756,333.417 300.423,334.25 300.5,335.5C 297.994,334.25 295.327,333.584 292.5,333.5C 290.315,333.296 288.315,332.63 286.5,331.5C 286.027,330.094 285.027,329.427 283.5,329.5C 283.167,328.833 282.833,328.167 282.5,327.5 Z"/></g>
<g><path style="opacity:1" fill="#98b0c8" d="M 190.5,326.5 C 193.096,327.265 195.763,327.599 198.5,327.5C 201.391,328.403 204.391,328.736 207.5,328.5C 209.102,330.074 211.102,330.741 213.5,330.5C 214.5,330.5 215.5,330.5 216.5,330.5C 216.5,330.833 216.5,331.167 216.5,331.5C 210.167,330.833 203.833,330.167 197.5,329.5C 194.922,329.02 192.588,328.02 190.5,326.5 Z"/></g>
<g><path style="opacity:1" fill="#577ea5" d="M 207.5,328.5 C 209.898,328.259 211.898,328.926 213.5,330.5C 211.102,330.741 209.102,330.074 207.5,328.5 Z"/></g>
<g><path style="opacity:1" fill="#8ca6c1" d="M 283.5,329.5 C 285.027,329.427 286.027,330.094 286.5,331.5C 284.973,331.573 283.973,330.906 283.5,329.5 Z"/></g>
<g><path style="opacity:1" fill="#4f78a0" d="M 216.5,331.5 C 216.5,331.167 216.5,330.833 216.5,330.5C 230.167,330.5 243.833,330.5 257.5,330.5C 252.577,331.954 247.411,332.621 242,332.5C 236.489,332.254 230.989,331.921 225.5,331.5C 222.833,331.5 220.167,331.5 217.5,331.5C 217.167,331.5 216.833,331.5 216.5,331.5 Z"/></g>
<g><path style="opacity:1" fill="#e8edf3" d="M 283.5,329.5 C 283.973,330.906 284.973,331.573 286.5,331.5C 286.5,331.833 286.5,332.167 286.5,332.5C 283.43,332.199 280.597,331.199 278,329.5C 271.195,331.567 264.362,333.401 257.5,335C 245.5,335.667 233.5,335.667 221.5,335C 220.058,334.623 219.058,333.79 218.5,332.5C 229.567,334.657 240.567,334.991 251.5,333.5C 258.584,332.43 265.584,330.93 272.5,329C 276.221,328.322 279.888,328.489 283.5,329.5 Z"/></g>
<g><path style="opacity:1" fill="#a0b6cc" d="M 286.5,332.5 C 286.5,332.167 286.5,331.833 286.5,331.5C 288.315,332.63 290.315,333.296 292.5,333.5C 292.5,333.833 292.5,334.167 292.5,334.5C 290.142,334.747 288.142,334.081 286.5,332.5 Z"/></g>
<g><path style="opacity:1" fill="#b8c8d9" d="M 217.5,331.5 C 220.167,331.5 222.833,331.5 225.5,331.5C 227.292,332.309 229.292,332.809 231.5,333C 238.158,333.5 244.825,333.666 251.5,333.5C 240.567,334.991 229.567,334.657 218.5,332.5C 217.833,332.5 217.5,332.167 217.5,331.5 Z"/></g>
<g><path style="opacity:1" fill="#d0dbe6" d="M 292.5,334.5 C 295.426,335.698 298.426,336.698 301.5,337.5C 302.59,338.857 303.924,339.857 305.5,340.5C 304.127,340.657 302.793,340.49 301.5,340C 298.165,338.424 295.165,336.591 292.5,334.5 Z"/></g>
<g><path style="opacity:1" fill="#5279a2" d="M 292.5,334.5 C 292.5,334.167 292.5,333.833 292.5,333.5C 295.327,333.584 297.994,334.25 300.5,335.5C 303.688,335.618 306.688,336.451 309.5,338C 313.486,338.499 317.486,338.666 321.5,338.5C 319.527,339.163 317.361,339.496 315,339.5C 310.405,339.354 305.905,338.687 301.5,337.5C 298.426,336.698 295.426,335.698 292.5,334.5 Z"/></g>
<g><path style="opacity:1" fill="#e3e9f0" d="M 324.5,320.5 C 325.655,327.655 325.822,334.988 325,342.5C 320.882,343.798 316.715,343.798 312.5,342.5C 312.137,341.817 311.804,341.15 311.5,340.5C 315.767,340.797 319.934,340.464 324,339.5C 324.5,333.175 324.666,326.842 324.5,320.5 Z"/></g>
</svg>
